<svg xmlns="http://www.w3.org/2000/svg" width="82.469" height="72.45" viewBox="0 0 82.469 72.45">
  <g id="グループ_621" data-name="グループ 621" transform="matrix(0.966, 0.259, -0.259, 0.966, -1069.859, -869.228)">
    <path id="パス_572" data-name="パス 572" d="M1346.055,581.962c.063.513.125,1.026.188,1.619-.1.168-.286.249-.3.347-.1,1.013-.118,2.037-.271,3.041a22.814,22.814,0,0,1-.817,4.01,21.527,21.527,0,0,1-1.725,3.212c-.3.542-.608,1.08-.9,1.626-.223.414-.444.831-.639,1.258a4.964,4.964,0,0,0-.257.851c0,.074,0,.073-.065.083a1.976,1.976,0,0,0-.312.619.5.5,0,0,1-.065.324,6.335,6.335,0,0,0-1.472,3.449,13.119,13.119,0,0,0-.876,1.906,11.817,11.817,0,0,0-.4,2.486,12.262,12.262,0,0,1-.889,3.841,12.1,12.1,0,0,1-2.613,3.387c-.328.368-.712.686-1.04,1.052a1.586,1.586,0,0,1-2.107.426,1.294,1.294,0,0,0-1.552-.021c-.626.332-1.156.151-1.709-.494a1.385,1.385,0,0,1-.067-1.643,3.041,3.041,0,0,0,.36-.643,2.947,2.947,0,0,1,.77-1.262,1.188,1.188,0,0,0,.236-1.6,4.166,4.166,0,0,1-.276-.885c-.12-.4-.088-.88-.611-1.135a5.875,5.875,0,0,0-1.453,1.806,6.755,6.755,0,0,1-1.583,2.3c-.788.661-1.6,1.288-2.419,1.916a.607.607,0,0,1-.434.124c-.758-.167-1.52-.33-2.26-.56a1.709,1.709,0,0,1-1.151-2.166,9.076,9.076,0,0,1,.362-1.261.66.66,0,0,0-.245-.9.691.691,0,0,0-.867.054,1.941,1.941,0,0,1-.731.359c-.614.1-1.238.151-1.859.193a2.719,2.719,0,0,1-.934-.045,10.841,10.841,0,0,1-2.828-.971,2.332,2.332,0,0,0-3.046.317,3.5,3.5,0,0,0-.833.876c-.288.466-.407,1.042-.72,1.485a5.661,5.661,0,0,0-.835,3.493,4.239,4.239,0,0,1-.694,2.3c-.518.835-.87,1.067-1.76.8a1.541,1.541,0,0,0-1.545.354,1.09,1.09,0,0,1-1.777-.6,2.684,2.684,0,0,1,0-1.111c.088-.486.278-.953.4-1.435.161-.635.336-1.271.434-1.917.062-.411.2-.894-.251-1.211-.509-.354-1.017-.713-1.552-1.026-.2-.116-.553-.232-.695-.137a4.951,4.951,0,0,1-1.8.436c-.931.228-1.876.406-2.793.678a2.463,2.463,0,0,0-1.275.681,17.9,17.9,0,0,0-1.215,2.3c-.115.223-.256.431-.366.656-.2.413-.391.833-.586,1.25l-.061.027c-.942.346-1.819.672-2.7.98a.768.768,0,0,1-.535.05,4.105,4.105,0,0,0-2.114-.3,1.392,1.392,0,0,1-1.3-1.675,6.731,6.731,0,0,1,.964-2.3,4.862,4.862,0,0,0,.674-2.5,5.826,5.826,0,0,0-.625-2.235,11.717,11.717,0,0,0-1.681-3.035,3.172,3.172,0,0,1-.627-.9c-.714-1.913-1.757-3.716-1.862-5.84a5.064,5.064,0,0,1,.02-1.562,1.218,1.218,0,0,0-.112-.895,5.31,5.31,0,0,1-.792-2.566,7.107,7.107,0,0,0-1.248-2.887,8.176,8.176,0,0,1-1.158-2.2,4.54,4.54,0,0,0-.332-.977,10.081,10.081,0,0,1-1.215-4.935c.008-.527.161-1.055.145-1.579a8.946,8.946,0,0,1,.592-3.492.489.489,0,0,0,.009-.187,1.814,1.814,0,0,1,.539-1.26,2.267,2.267,0,0,0,.568-1.041c.179-1.569.276-3.148.4-4.723,0-.083,0-.167,0-.392a3.722,3.722,0,0,1,.07-.942c.474-.431.391-.865.119-1.382,0-.276,0-.478,0-.679l.061-.008c.382-.156.363-.344.133-.623a3.975,3.975,0,0,1,.233-.733c.359-1.178.809-1.523,1.969-1.459.4.022.793.119,1.251.182a.488.488,0,0,1,.321.066c.463.516.911.976,1.382,1.41a3.625,3.625,0,0,0,.518.264,1.942,1.942,0,0,0,.175.212,1.532,1.532,0,0,0,.39.575A6.809,6.809,0,0,1,1287.79,570c.64,1.157,1.217,1.128,2.223.647a5.233,5.233,0,0,1,1.116-.4,11.61,11.61,0,0,1,2.643-.464,2.986,2.986,0,0,0,1.623-.486,1.91,1.91,0,0,1,.812-.156c.468-.024.939,0,1.408-.01.185,0,.436.025.54-.078.455-.452.867-.947,1.294-1.427.061-.019.11-.054.225-.175.323-.257.58-.433.814-.636a5.892,5.892,0,0,0,1.791-2.209c.019-.061.055-.11.22-.176a26.246,26.246,0,0,1,2.67-.558,1.329,1.329,0,0,1,1.452,1.26,6.236,6.236,0,0,1,.1.645,20.91,20.91,0,0,1,0,3.372,9.059,9.059,0,0,0-.1,1.922,2.045,2.045,0,0,0,.7,1.372c.691.671,1.731,1.059,1.894,2.192.007.052.087.09.118.143.406.687.858,1.352,1.2,2.069.5,1.042.35,2.286.964,3.3.029.048.012.123.018.186.142,1.438.21,1.5,1.645,1.436a2.657,2.657,0,0,0,.556-.072c1.255-.331,2.494-.733,3.763-.991a26.927,26.927,0,0,1,4.153-.6c1.557-.068,3.123.131,4.686.146a6.768,6.768,0,0,1,2.938.429c1.667.8,1.588.092,2.184-1.028.015-.028.024-.058.037-.086.453-.959.882-1.931,1.372-2.871a3.476,3.476,0,0,1,.745-.836,9.522,9.522,0,0,1,.939-.773,5.244,5.244,0,0,1,4.12-1.191,1.84,1.84,0,0,0,1.162-.115.931.931,0,0,1,.713-.023c1.2.648,2.615.911,3.533,2.051.137.17.438.208.663.307,0,0,0,.094,0,.211a2.08,2.08,0,0,1-.047.582c.136.624.319,1.207.5,1.79.1.317.186.639.307.948C1345.79,580.394,1345.49,581.283,1346.055,581.962Z" transform="translate(-3.793 -3.775)" fill="#fbf5ef"/>
    <g id="グループ_416" data-name="グループ 416" transform="translate(1272.417 558.948)">
      <path id="パス_573" data-name="パス 573" d="M1324.306,642.182c-.96-.367-1.265-1.454-1.555-2.341a1.65,1.65,0,0,1,2.1-2.321,2.142,2.142,0,0,1,2.984,2.869,3.3,3.3,0,0,1-1.544,1.238A1.732,1.732,0,0,1,1324.306,642.182Z" transform="translate(-1309.452 -615.76)" fill="#fff"/>
      <path id="パス_574" data-name="パス 574" d="M1301.177,615.9a2.579,2.579,0,0,1-1.85-3.886c.335-.706.864-1.218.851-2.04.125-.5.483-.859.388-1.4a7.417,7.417,0,0,1-3.415-.421,16.785,16.785,0,0,0-4.186-.382,4.246,4.246,0,0,1-1.265,1.439c-.616,1.69-1.212,4.928-3.455,4.944-1.621,1.335-5.1,1.152-5.129-1.453a2.583,2.583,0,0,1,.405-1.269,7.071,7.071,0,0,1,1.523-3,30.61,30.61,0,0,1-2.484-4.865c-.959-2.069-2.721-3.774-3.184-6.058a10.8,10.8,0,0,1,.309-4.5,17.225,17.225,0,0,1-1.1-4.513c-1.274-1.705-2.574-3.523-2.72-5.718-.839-.986-.2-2.394-.421-3.558-.073-1.385-.762-3.058.125-4.286.029-.954,0-2.091.931-2.651a28.466,28.466,0,0,1-.05-4.059c.208-1.447-.385-3.916.989-4.8-.234-1.8,1.2-3.777,3-2.443,1.957-.006,2.948,2.187,3.884,3.606,1.687-.117,2.589,1.551,3.309,2.817a1.827,1.827,0,0,1,.291-.15,3.73,3.73,0,0,1,1.2-.244c1.818-2.2,5.411-1.048,7.914-1.2a7.918,7.918,0,0,1,4.019-4.259,2.235,2.235,0,0,1,4.345-.187,5.431,5.431,0,0,1,.236,3.186c-.2,1.5-.447,2.995-.609,4.5l.139.288q.084.168.166.337c1.677.546,3.51,5.1,4.261,6.763a1.6,1.6,0,0,1,2.654,1.505c1.4-.263,2.8-.566,4.224-.734,1.135-.228,2.322-.076,3.432-.37,3.292-.75,6.764-1.317,10.116-.658.7-2.2,2-3.888,4.4-4.213a4.818,4.818,0,0,1,7.094-.947,7.321,7.321,0,0,1,2.02,2.411,3.843,3.843,0,0,1,1.082,1.481c1.386,3.282.757,7.013.086,10.4a12,12,0,0,1-2.756,6.961c-.369,2.63-1.879,4.837-2.808,7.262h0a2.907,2.907,0,0,1-2.157,2.069c.434,3.606-.665,7.678-4.014,9.472a5.125,5.125,0,0,1-5,2.181c-2.154-.42-3.272-3.489-.741-4.238,1.149-1.1.928-2.8.325-4.129l-.156.026a5.246,5.246,0,0,1-.557.061c-.761,1.215-1.052,2.715-2.125,3.733a6.631,6.631,0,0,1-3.229,1.631,2.188,2.188,0,0,1-1.245.381,2.09,2.09,0,0,1-1.916-2.855c-1.3.152-2.425-.5-3.61-.863-1.66.013-3.456.071-4.942-.78a14.364,14.364,0,0,1-3.286,1.051C1307.1,611.752,1306.455,615.657,1301.177,615.9Zm26.45-3.376h.02l-.154-.008Zm-20.083-26.539.037-.046c.04-.048.08-.095.12-.141q0-.1,0-.191a2.319,2.319,0,0,1-.325.064Q1307.46,585.832,1307.544,585.988Z" transform="translate(-1275.127 -559.742)" fill="#fff"/>
    </g>
    <path id="パス_575" data-name="パス 575" d="M1325.729,641.81a1.937,1.937,0,0,1-.953-.411,1.86,1.86,0,0,1-1-3.163,2.822,2.822,0,0,1,1.929-1.661,2.938,2.938,0,0,1,2.411.312C1330.175,638.557,1328.058,641.985,1325.729,641.81Z" transform="translate(-37.498 -56.305)" fill="#d97b0e"/>
    <g id="グループ_417" data-name="グループ 417" transform="translate(1271.381 558.645)">
      <path id="パス_576" data-name="パス 576" d="M1470.737,710.194a7.963,7.963,0,0,1-2,4.061c-.405.48-.795.973-1.19,1.462a3.391,3.391,0,0,1-4.164,1.179c-.651-.234-1.255.1-1.873.214a1.581,1.581,0,0,1-2.029-1.51,5.482,5.482,0,0,1,.072-1.5,5.265,5.265,0,0,1,1.16-2.341c.212-.258.474-.453.816-.263.365.2.27.548.146.832a13.647,13.647,0,0,0-.636,1.257,10.952,10.952,0,0,0-.366,1.818c-.051.378.192.571.632.584.032-.2.065-.4.1-.608.029-.186.046-.375.089-.558.137-.587.5-.972.823-.841.462.187.536.541.375,1.005a3.511,3.511,0,0,0-.013.915l.87-1.4c.985.137.542.911.717,1.489a1.8,1.8,0,0,0,1.911-.566,16.479,16.479,0,0,0,3.282-4.562,10.363,10.363,0,0,0,.644-3.593,16.142,16.142,0,0,1,.391-2.692,3.289,3.289,0,0,1,.655-1.226c.157-.2.495-.26.751-.384l.192.133a5.3,5.3,0,0,1-.208,1.118,12.914,12.914,0,0,0-.761,3.864C1471.053,708.765,1470.878,709.439,1470.737,710.194Z" transform="translate(-1407.45 -663.058)"/>
      <path id="パス_577" data-name="パス 577" d="M1285.08,562.216a14.259,14.259,0,0,0-1.47-.718.641.641,0,0,0-.9.446c-.493,1.674-1.283,3.284-1.286,5.071a10.731,10.731,0,0,0,.239,3.913c.128.34-.042.532-.356.63a1.275,1.275,0,0,1-.869-1.117,12.191,12.191,0,0,1,.479-6.663,13.28,13.28,0,0,0,.51-1.614c.512-2.136,1.753-2.237,3.209-1.563a11.773,11.773,0,0,1,3.573,2.719c.77.822,1.518,1.664,2.3,2.477a5.525,5.525,0,0,1,1.1,1.69c-.692.45-.69.448-1.168-.051-1.192-1.244-2.368-2.5-3.586-3.721C1286.324,563.186,1285.709,562.743,1285.08,562.216Z" transform="translate(-1277.754 -559.792)"/>
      <path id="パス_578" data-name="パス 578" d="M1323.561,640.382c-2.025-.331-2.93-1.692-2.8-4.118-1.115-.748-1.119-.758-.59-1.542.252.077.517.163.785.238a1.921,1.921,0,0,0,2.229-.778c.427-.572.756-.608,1.188-.1a1.917,1.917,0,0,0,2.56.662c.3-.15.629-.256.842.077a.656.656,0,0,1-.229.91,11.972,11.972,0,0,1-1.025.632,3.6,3.6,0,0,1-1.064,3.208A2.375,2.375,0,0,1,1323.561,640.382Zm-.505-2.977c-.039-.454-.077-.908-.122-1.444l-1.315.384a14.916,14.916,0,0,0,.569,2.114,1.463,1.463,0,0,0,2.483.286,4.5,4.5,0,0,0,.918-2.468l-1.232-.489a14.563,14.563,0,0,1-.352,1.752C1323.831,638.068,1323.538,638.05,1323.056,637.406Z" transform="translate(-1306.431 -612.965)"/>
      <path id="パス_579" data-name="パス 579" d="M1362.861,561.69c.061,1.643.151,3.208.121,4.772a4.069,4.069,0,0,1-.514,1.588c-.09.187-.447.245-.682.361-.08-.218-.173-.432-.234-.655a.682.682,0,0,1,0-.372,11.245,11.245,0,0,0,.228-4.569,10.31,10.31,0,0,0-.65-2.427.936.936,0,0,0-1.158-.57,5.929,5.929,0,0,0-3.218,1.641,17.345,17.345,0,0,0-3.041,3.568.792.792,0,0,1-.918.478.742.742,0,0,1-.074-1.156c.811-.992,1.633-1.977,2.476-2.941a8.108,8.108,0,0,1,3.868-2.565c1.788-.517,2.9-.035,3.411,1.6C1362.59,560.836,1362.717,561.224,1362.861,561.69Z" transform="translate(-1330.05 -558.645)"/>
      <path id="パス_580" data-name="パス 580" d="M1367.865,742.684a3.521,3.521,0,0,0,.578-1c.283-1.409.52-2.828.738-4.249.111-.729.146-.776.965-.567a5.082,5.082,0,0,1,.025,2.5c-.093.711-.267,1.413-.424,2.115a4.464,4.464,0,0,1-1.612,2.247,1.347,1.347,0,0,1-1.428.116c-.232-.09-.447-.223-.678-.341a4.341,4.341,0,0,1-2.484.52,1.365,1.365,0,0,1-1.316-1.528,17.467,17.467,0,0,1,.373-2.112q.149-.778.318-1.552a1.066,1.066,0,0,1,.175-.513.745.745,0,0,1,.55-.229.632.632,0,0,1,.4.421,3.328,3.328,0,0,1-.177,1.933,12.027,12.027,0,0,0-.524,1.6c-.127.5.051.862.723.976a2.972,2.972,0,0,1,.129-.772c.1-.233.295-.544.5-.59.319-.07.575.152.624.541a6.638,6.638,0,0,0,.25.87l.691-1.332c.842,0,.617.678.833,1.217A6.942,6.942,0,0,0,1367.865,742.684Z" transform="translate(-1337.105 -687.505)"/>
      <path id="パス_581" data-name="パス 581" d="M1437.431,725.61a3.246,3.246,0,0,1-.742,3.142c-.407.514-.774,1.063-1.208,1.552a3.69,3.69,0,0,1-3.449,1.256,7.583,7.583,0,0,0-1.182.054,6.76,6.76,0,0,1-.817-.027c-.215-.02-.426-.106-.639-.112a1.472,1.472,0,0,1-1.555-1.961,3.846,3.846,0,0,1,.17-.631c.247-.641.51-1.278.777-1.942.791-.233.9-.174.9.633a2.608,2.608,0,0,1-.165.814c-.129.385-.307.753-.448,1.135a.855.855,0,0,0,.123.932c.354-.558.259-1.366,1.011-1.546.809.438-.038,1.336.59,1.889.24-.544.214-1.183.809-1.441.6.071.577.559.641,1.016a1.946,1.946,0,0,0,2.212-.793,11.951,11.951,0,0,0,2.083-3c.182-.384.344-.8.88-.909C1437.445,725.626,1437.431,725.61,1437.431,725.61Z" transform="translate(-1384.537 -679.441)"/>
      <path id="パス_582" data-name="パス 582" d="M1307.4,743.381c.561.325.561.325.792,1.136a2.108,2.108,0,0,0,1.664-1.018,16.344,16.344,0,0,0,1.12-1.838c.078-.134.106-.3.189-.427a.576.576,0,0,1,.8-.267c.3.151.322.409.23.722a5.947,5.947,0,0,1-1.837,2.894c-.261.225-.519.455-.8.657a2.185,2.185,0,0,1-1.6.4,7.84,7.84,0,0,0-2.233-.109,2.256,2.256,0,0,1-2.435-2.087,7.671,7.671,0,0,1,.929-3.7.673.673,0,0,1,.594-.283.553.553,0,0,1,.442.71c-.157.509-.345,1.01-.477,1.526a9.728,9.728,0,0,0-.274,1.466.96.96,0,0,0,.794,1.125c.064-.353.114-.689.186-1.02.059-.274.126-.654.486-.545a1.263,1.263,0,0,1,.6.62,2.406,2.406,0,0,1,.095.8A8.61,8.61,0,0,1,1307.4,743.381Z" transform="translate(-1294.454 -689.458)"/>
      <path id="パス_583" data-name="パス 583" d="M1452.548,613.2c-.991-.479-1.9-.97-2.849-1.37a4.949,4.949,0,0,0-3.3-.339,6.823,6.823,0,0,1-1.217.11c-.148-.4.062-.56.325-.7a5.14,5.14,0,0,1,4.705-.161c.772.341,1.555.657,2.339.986.2-.8.34-1.622.609-2.4a3.657,3.657,0,0,1,1.549-1.825.531.531,0,0,1,.221.805c-.267.494-.48,1.018-.714,1.53a3.5,3.5,0,0,0-.233,2.028c.069.461.123.925.153,1.391.026.4-.177.537-.58.393C1453.229,613.539,1452.924,613.372,1452.548,613.2Z" transform="translate(-1397.086 -593.996)"/>
      <path id="パス_584" data-name="パス 584" d="M1455,718.53c-.029-.256-.065-.518-.113-.853-.337.112-.566.2-.8.265a2.074,2.074,0,0,1-1.714-.235.657.657,0,0,1-.251-.9c.174-.386.486-.368.787-.2a1.134,1.134,0,0,0,1.509-.306c.369-.367.759-.8,1.366-.239a1.265,1.265,0,0,0,.358,1.614,2.285,2.285,0,0,1,.521,1.848.6.6,0,0,1-.636.62c-.3-.506-.606-1.036-.983-1.6C1454.981,718.508,1455,718.523,1455,718.53Z" transform="translate(-1402.087 -672.339)"/>
      <path id="パス_585" data-name="パス 585" d="M1415.035,620.105a2.292,2.292,0,0,1,2.177.589c-.042.035-.085.1-.122.1a9.707,9.707,0,0,0-3.544.593,22.96,22.96,0,0,0-3.028.954.769.769,0,0,1-.658-.1c-.094-.071-.07-.428.022-.587a1.315,1.315,0,0,1,.574-.565,9.394,9.394,0,0,1,1.963-.606A9.907,9.907,0,0,1,1415.035,620.105Z" transform="translate(-1371.523 -603.07)"/>
      <path id="パス_586" data-name="パス 586" d="M1411.175,727.316a4.229,4.229,0,0,1-2.928-.067c-.561-.19-1.083-.491-1.625-.737a1.1,1.1,0,0,1-.73-1.3.727.727,0,0,1,1.12.037,4.723,4.723,0,0,0,3.222,1.11,7.067,7.067,0,0,0,1.632-.3C1412.1,726.716,1412.1,726.716,1411.175,727.316Z" transform="translate(-1368.681 -678.974)"/>
      <path id="パス_587" data-name="パス 587" d="M1491.672,595.715c.191.422.191.422-.023.852a5.79,5.79,0,0,0-3.09.482,5.16,5.16,0,0,0-.892.649c-.228.158-.473.289-.754.458a1.43,1.43,0,0,1,.516-1.845A4.725,4.725,0,0,1,1491.672,595.715Z" transform="translate(-1427.214 -585.292)"/>
      <path id="パス_588" data-name="パス 588" d="M1289.551,677.971c.244,1.442.142,2.879.762,4.192a.675.675,0,0,1,.073.454,1.04,1.04,0,0,1-.377.559.587.587,0,0,1-.53-.223,6.61,6.61,0,0,1-.737-1.811,15.028,15.028,0,0,1-.089-2.705C1288.667,677.923,1289.015,677.747,1289.551,677.971Z" transform="translate(-1283.864 -644.906)"/>
      <path id="パス_589" data-name="パス 589" d="M1512.607,598.521c.752.67,1.5,1.248,2.132,1.932.56.6.5.656.367,1.652-.524.176-.777-.192-1.057-.526-.7-.835-1.4-1.675-2.123-2.486-.124-.139-.408-.121-.589-.225a4.369,4.369,0,0,1-.559-.47A1.443,1.443,0,0,1,1512.607,598.521Z" transform="translate(-1444.581 -587.207)"/>
      <path id="パス_590" data-name="パス 590" d="M1519.773,658.639c.044-.455.223-.778.63-.734.38.042.548.385.576.756.053.7.229,1.436-.629,1.87-.163.082-.169.486-.235.745-.114.444-.113.94-.673,1.133-.438.151-.653.014-.62-.444a3.442,3.442,0,0,0,.046-.542,1.289,1.289,0,0,1,.991-1.506C1519.83,659.51,1519.8,659.111,1519.773,658.639Z" transform="translate(-1450.397 -630.455)"/>
      <path id="パス_591" data-name="パス 591" d="M1365.207,580.561a6.108,6.108,0,0,1,.464-1.2,1.392,1.392,0,0,1,.608-.542c.523-.226.753,0,.644.571-.028.152-.081.3-.166.605a2.479,2.479,0,0,1,.709-.291,1.505,1.505,0,0,1,.537.139c.169.572.314,1,.411,1.43.036.161.019.424-.081.5a.523.523,0,0,1-.508-.024c-.427-.376-.813-.8-1.214-1.205C1365.806,581.336,1365.646,581.342,1365.207,580.561Z" transform="translate(-1339.262 -573.181)"/>
      <path id="パス_592" data-name="パス 592" d="M1297.436,586.409c-.409-.151-.747-.3-1.07-.44l-1.889,1.376-.578-.64c.281-.419.53-.766.751-1.129.3-.486.708-.217,1.085-.176l.5-.894a13.333,13.333,0,0,1,1.364.8C1298.1,585.68,1298.046,586.074,1297.436,586.409Z" transform="translate(-1287.672 -577.354)"/>
      <path id="パス_593" data-name="パス 593" d="M1511.011,677.773c-.061-.48-.109-.882-.182-1.278-.051-.276-.15-.543-.205-.818-.074-.368-.032-.7.4-.822.412-.115.557.2.691.479a5.437,5.437,0,0,1,.495,2.644,1.688,1.688,0,0,1-.374.83c-.25.342-.279.321-.876.061C1510.977,678.536,1511,678.2,1511.011,677.773Z" transform="translate(-1444.447 -642.703)"/>
      <path id="パス_594" data-name="パス 594" d="M1522.084,615.6a9.3,9.3,0,0,1,.9,1.268c.3.6.046.971-.716,1.171-.118-.195-.246-.4-.368-.611a3.231,3.231,0,0,0-1.488-1.5.5.5,0,0,1-.3-.754.569.569,0,0,1,.8-.276A12.6,12.6,0,0,1,1522.084,615.6Z" transform="translate(-1451.28 -599.287)"/>
      <path id="パス_595" data-name="パス 595" d="M1271.6,628.613a1.366,1.366,0,0,1,.207-1.707,6.567,6.567,0,0,1,.878-.953.6.6,0,0,1,.584-.006c.159.137.33.538.262.614-.609.674-.825,1.692-1.774,2.065C1271.725,628.637,1271.691,628.63,1271.6,628.613Z" transform="translate(-1271.381 -607.284)"/>
      <path id="パス_596" data-name="パス 596" d="M1402.6,627.715c-.238-.538-.446-1.011-.671-1.526l.792-.467a4.262,4.262,0,0,1,1.259,2.18.561.561,0,0,1-.375.745.523.523,0,0,1-.7-.276A5.732,5.732,0,0,1,1402.6,627.715Z" transform="translate(-1365.832 -607.175)"/>
      <path id="パス_597" data-name="パス 597" d="M1322.026,731.83c.152.314.263.58.357.8a.78.78,0,0,1-1.24.015,2.506,2.506,0,0,1-.812-1.746.7.7,0,0,1,.207-.556.71.71,0,0,1,.585.113,1.6,1.6,0,0,1,.395.507C1321.685,731.23,1321.832,731.508,1322.026,731.83Z" transform="translate(-1306.795 -682.845)"/>
      <path id="パス_598" data-name="パス 598" d="M1329.7,627.7c-.183-.745-.086-.985.452-1.273a1.253,1.253,0,0,1,1.409.119.8.8,0,0,1-.24,1.325A1.345,1.345,0,0,1,1329.7,627.7Z" transform="translate(-1313.513 -607.572)"/>
      <path id="パス_599" data-name="パス 599" d="M1524.511,630.284c-.209-.348-.382-.641-.6-1,.179-.17.341-.452.519-.461a.935.935,0,0,1,.729.3,8.446,8.446,0,0,1,.845,1.649c.147.388-.148.63-.514.762C1524.874,631.373,1524.829,630.76,1524.511,630.284Z" transform="translate(-1454.084 -609.414)"/>
      <path id="パス_600" data-name="パス 600" d="M1525.5,644.862c-.174-.778-.328-1.5-.417-2.232a.576.576,0,0,1,.328-.462.755.755,0,0,1,.624.247,2.893,2.893,0,0,1,.251,2.172C1526.189,644.914,1525.993,645.268,1525.5,644.862Z" transform="translate(-1454.929 -619.07)"/>
      <path id="パス_601" data-name="パス 601" d="M1350.421,614.541a2.054,2.054,0,0,1,.3.43,1.075,1.075,0,0,1-.15,1.2,1.02,1.02,0,0,1-1.283-.112,1.046,1.046,0,0,1-.337-1.25c.241-.481.566-.607,1.168-.443A1.394,1.394,0,0,1,1350.421,614.541Z" transform="translate(-1327.437 -598.908)"/>
      <path id="パス_602" data-name="パス 602" d="M1356.566,731.47c-.26-1.055-.251-1.07.608-1.213.413.436.793.879,1.219,1.273a.589.589,0,0,1,.155.744.476.476,0,0,1-.714.2A9.849,9.849,0,0,1,1356.566,731.47Z" transform="translate(-1332.903 -682.803)"/>
      <path id="パス_603" data-name="パス 603" d="M1303.049,718.394a2.283,2.283,0,0,1-1.354-1.617.632.632,0,0,1,.344-.865c.407-.16.6.14.779.468.208.378.482.718.723,1.078C1303.9,718,1303.84,718.14,1303.049,718.394Z" transform="translate(-1293.273 -672.393)"/>
      <path id="パス_604" data-name="パス 604" d="M1278.942,649.391a.8.8,0,0,1,.809-.818c.115.2.351.43.355.663a7.744,7.744,0,0,1-.164,1.666c-.039.192-.3.477-.457.471a.742.742,0,0,1-.514-.443,3.613,3.613,0,0,1-.1-1A3.232,3.232,0,0,1,1278.942,649.391Z" transform="translate(-1276.801 -623.706)"/>
      <path id="パス_605" data-name="パス 605" d="M1332.923,733.637c.291.241.535.432.774.631a.425.425,0,0,1,.1.654.856.856,0,0,1-.625.251,1.819,1.819,0,0,1-1.485-1.843C1332.412,732.9,1332.412,732.9,1332.923,733.637Z" transform="translate(-1315.009 -684.815)"/>
      <path id="パス_606" data-name="パス 606" d="M1295.719,704.14a2,2,0,0,1-.618-2.146.76.76,0,0,1,.536-.511c.179,0,.474.3.526.515a7.713,7.713,0,0,1,.209,1.652C1296.379,703.965,1296.216,704.263,1295.719,704.14Z" transform="translate(-1288.496 -661.985)"/>
      <path id="パス_607" data-name="パス 607" d="M1396.665,605.033c-.874.485-1.594.028-2.283-.332a.543.543,0,0,1,.135-.963,2.555,2.555,0,0,1,2.164.948A.708.708,0,0,1,1396.665,605.033Z" transform="translate(-1360.196 -591.245)"/>
      <path id="パス_608" data-name="パス 608" d="M1399.309,616.249c-.4-.339-.76-.637-1.1-.95-.254-.232-.411-.576-.134-.809a.881.881,0,0,1,.825-.075,5.072,5.072,0,0,1,1.128,1.084.8.8,0,0,1-.022.679C1399.882,616.432,1399.612,616.449,1399.309,616.249Z" transform="translate(-1362.935 -598.941)"/>
      <path id="パス_609" data-name="パス 609" d="M1438.007,723.315c.274.072.483.128.709.189-.871.906-1.229,1.027-2,.691-.911-.4-.956-.686-.253-1.426C1436.968,722.95,1437.455,723.125,1438.007,723.315Z" transform="translate(-1390.465 -677.385)"/>
      <path id="パス_610" data-name="パス 610" d="M1387.34,597.975a5.532,5.532,0,0,1,.976-.247,2.523,2.523,0,0,1,.905.109c.14.043.333.269.317.387-.025.181-.181.452-.331.491a8.738,8.738,0,0,1-1.657.268.789.789,0,0,1-.589-.325C1386.764,598.351,1387,598.142,1387.34,597.975Z" transform="translate(-1354.949 -586.917)"/>
      <path id="パス_611" data-name="パス 611" d="M1276.968,606.177c-.447.327-1.1.008-1.366.582-.161-.1-.453-.2-.457-.314a.855.855,0,0,1,.241-.646,7.976,7.976,0,0,1,1.431-.827.71.71,0,0,1,.646.1.566.566,0,0,1-.039.833A2.061,2.061,0,0,1,1276.968,606.177Z" transform="translate(-1274.104 -592.135)"/>
      <path id="パス_612" data-name="パス 612" d="M1314.623,615.883a.839.839,0,0,1,.355-.878,1.041,1.041,0,0,1,1.354.184.836.836,0,0,1-.073,1.176.929.929,0,0,1-1.337.065A1.623,1.623,0,0,1,1314.623,615.883Z" transform="translate(-1302.662 -599.298)"/>
      <path id="パス_613" data-name="パス 613" d="M1273.535,617.069a1.516,1.516,0,0,1,.692.028.475.475,0,0,1,.079.842,10.808,10.808,0,0,1-1.174.75.419.419,0,0,1-.631-.188.644.644,0,0,1,0-.569A7.577,7.577,0,0,1,1273.535,617.069Z" transform="translate(-1272.143 -600.896)"/>
      <path id="パス_614" data-name="パス 614" d="M1385.627,728.412a3.107,3.107,0,0,0,.324.124c.279.067.659.151.49.5a1.1,1.1,0,0,1-.771.536,1.4,1.4,0,0,1-1.373-1.046C1384.717,727.946,1384.717,727.946,1385.627,728.412Z" transform="translate(-1353.073 -681.225)"/>
      <path id="パス_615" data-name="パス 615" d="M1331.8,581.437c-.23-.037-.471-.046-.544-.161a.9.9,0,0,1,.136-1.04,1.121,1.121,0,0,1,.955-.648c.118,0,.323.288.328.449A1.477,1.477,0,0,1,1331.8,581.437Z" transform="translate(-1314.618 -573.796)"/>
      <path id="パス_616" data-name="パス 616" d="M1325.123,580.353a4.7,4.7,0,0,1-.265,1.3c-.091.208-.42.462-.6.435a.742.742,0,0,1-.457-.579,2.579,2.579,0,0,1,.4-1.18C1324.4,580.041,1324.78,579.978,1325.123,580.353Z" transform="translate(-1309.302 -574.161)"/>
      <path id="パス_617" data-name="パス 617" d="M1284.688,658.5c.5.06.672.345.622.729a3.026,3.026,0,0,1-.3,1.127c-.164.279-.655.09-.823-.276A1.583,1.583,0,0,1,1284.688,658.5Z" transform="translate(-1280.599 -630.89)"/>
      <path id="パス_618" data-name="パス 618" d="M1275.962,640.663c.263.578-.03,1.011-.241,1.45a.466.466,0,0,1-.705.22.812.812,0,0,1-.281-.6C1274.749,640.924,1275.182,640.539,1275.962,640.663Z" transform="translate(-1273.807 -617.967)"/>
      <path id="パス_619" data-name="パス 619" d="M1503.794,692.12a1.114,1.114,0,0,1,.79,1.362c-.083.3-.109.731-.614.68a.6.6,0,0,1-.49-.841C1503.594,692.932,1503.168,692.415,1503.794,692.12Z" transform="translate(-1439.273 -655.212)"/>
      <path id="パス_620" data-name="パス 620" d="M1342.518,577.242a1.234,1.234,0,0,1-.642,1.211.849.849,0,0,1-.751.007c-.124-.068-.182-.484-.1-.657a6.367,6.367,0,0,1,.725-.976A7.148,7.148,0,0,1,1342.518,577.242Z" transform="translate(-1321.74 -571.799)"/>
      <path id="パス_621" data-name="パス 621" d="M1343.524,733.014c-.313.6-.776.428-1.146.257a.9.9,0,0,1-.493-1.016c.055-.332.3-.556.59-.377C1342.9,732.142,1343.465,732.318,1343.524,733.014Z" transform="translate(-1322.378 -683.93)"/>
      <path id="パス_622" data-name="パス 622" d="M1396.379,723.891c.2.681.137.816-.373.837a1.925,1.925,0,0,1-.729-.12.558.558,0,0,1-.368-.756c.116-.306.405-.355.71-.245C1395.852,723.692,1396.088,723.775,1396.379,723.891Z" transform="translate(-1360.719 -677.953)"/>
      <path id="パス_623" data-name="パス 623" d="M1294.435,632.43c-.49-.632-.347-1.354.281-1.587a.586.586,0,0,1,.51.049.728.728,0,0,1,.184.56C1295.315,631.952,1294.908,632.208,1294.435,632.43Z" transform="translate(-1287.847 -610.854)"/>
      <path id="パス_624" data-name="パス 624" d="M1363.027,632.145c.763-.4.763-.4,1.257.516-.181.271-.389.547-.787.383C1363.146,632.9,1362.819,632.688,1363.027,632.145Z" transform="translate(-1337.638 -611.635)"/>
      <path id="パス_625" data-name="パス 625" d="M1367.845,733.076c.564.091.739.377.625.857-.663.177-.987.119-1.092-.241C1367.282,733.362,1367.315,733.058,1367.845,733.076Z" transform="translate(-1340.802 -684.842)"/>
      <path id="パス_626" data-name="パス 626" d="M1298.162,638.367a1.088,1.088,0,0,1-.024-.421c.1-.289.3-.5.636-.38.261.091.36.668.143.909C1298.675,638.742,1298.4,638.839,1298.162,638.367Z" transform="translate(-1290.728 -615.718)"/>
      <path id="パス_627" data-name="パス 627" d="M1438.546,621.059a1.4,1.4,0,0,1,.278.21l-.455.062A1.021,1.021,0,0,1,1438.546,621.059Z" transform="translate(-1392.194 -603.8)"/>
    </g>
  </g>
</svg>
