<svg xmlns="http://www.w3.org/2000/svg" width="143.944" height="126.456" viewBox="0 0 143.944 126.456">
  <g id="グループ_422" data-name="グループ 422" transform="matrix(0.966, 0.259, -0.259, 0.966, -1059.711, -869.646)">
    <path id="パス_572" data-name="パス 572" d="M1397.813,595.455c.109.9.219,1.792.329,2.825-.18.293-.5.434-.516.605-.178,1.768-.206,3.556-.474,5.308a39.811,39.811,0,0,1-1.427,7,37.589,37.589,0,0,1-3.01,5.606c-.524.946-1.06,1.886-1.573,2.838-.389.723-.774,1.45-1.115,2.2a8.667,8.667,0,0,0-.448,1.485c0,.128,0,.128-.113.145a3.456,3.456,0,0,0-.545,1.081.872.872,0,0,1-.114.566,11.056,11.056,0,0,0-2.569,6.02,22.914,22.914,0,0,0-1.529,3.327,20.641,20.641,0,0,0-.705,4.34,21.4,21.4,0,0,1-1.552,6.7c-.953,2.4-2.9,4.049-4.562,5.912-.572.642-1.242,1.2-1.816,1.837a2.768,2.768,0,0,1-3.677.743,2.259,2.259,0,0,0-2.709-.037c-1.093.579-2.018.264-2.983-.862a2.418,2.418,0,0,1-.117-2.867,5.308,5.308,0,0,0,.629-1.123,5.142,5.142,0,0,1,1.345-2.2,2.073,2.073,0,0,0,.413-2.8,7.272,7.272,0,0,1-.481-1.544c-.209-.7-.153-1.536-1.067-1.98a10.256,10.256,0,0,0-2.535,3.152,11.794,11.794,0,0,1-2.763,4.017c-1.375,1.153-2.8,2.249-4.222,3.344a1.057,1.057,0,0,1-.758.216c-1.323-.291-2.654-.575-3.945-.978a2.984,2.984,0,0,1-2.009-3.78,15.865,15.865,0,0,1,.631-2.2,1.151,1.151,0,0,0-.428-1.567,1.207,1.207,0,0,0-1.513.1,3.386,3.386,0,0,1-1.276.626c-1.071.18-2.16.264-3.245.337a4.745,4.745,0,0,1-1.631-.078c-1.674-.5-3.516-.778-4.936-1.7-2.1-1.355-3.68-.725-5.316.553a6.111,6.111,0,0,0-1.455,1.529c-.5.813-.711,1.819-1.257,2.591a9.882,9.882,0,0,0-1.457,6.1,7.4,7.4,0,0,1-1.211,4.015c-.9,1.457-1.517,1.862-3.073,1.405a2.69,2.69,0,0,0-2.7.619,1.9,1.9,0,0,1-3.1-1.042,4.686,4.686,0,0,1,0-1.939c.153-.849.485-1.664.7-2.505.281-1.109.586-2.218.757-3.346.109-.718.358-1.561-.438-2.115-.889-.618-1.776-1.245-2.708-1.791-.347-.2-.965-.4-1.212-.239-.975.656-2.1.507-3.137.762-1.625.4-3.274.708-4.875,1.183a4.3,4.3,0,0,0-2.226,1.188,31.243,31.243,0,0,0-2.121,4.013c-.2.389-.447.753-.64,1.145-.354.721-.683,1.454-1.022,2.182,0,0,0,0-.106.048-1.643.6-3.175,1.173-4.718,1.71a1.341,1.341,0,0,1-.933.087c-1.171-.7-2.442-.485-3.69-.529a2.43,2.43,0,0,1-2.274-2.923,11.742,11.742,0,0,1,1.682-4.019,8.489,8.489,0,0,0,1.176-4.371,10.168,10.168,0,0,0-1.09-3.9,20.447,20.447,0,0,0-2.934-5.3,5.533,5.533,0,0,1-1.1-1.563c-1.246-3.339-3.067-6.485-3.25-10.193a8.842,8.842,0,0,1,.035-2.726,2.125,2.125,0,0,0-.195-1.562,9.268,9.268,0,0,1-1.382-4.479,12.407,12.407,0,0,0-2.178-5.04,14.262,14.262,0,0,1-2.021-3.834,7.933,7.933,0,0,0-.579-1.7,17.6,17.6,0,0,1-2.122-8.614c.013-.92.281-1.841.252-2.756a15.614,15.614,0,0,1,1.034-6.1.85.85,0,0,0,.015-.327,3.168,3.168,0,0,1,.941-2.2,3.956,3.956,0,0,0,.992-1.817c.313-2.739.481-5.494.7-8.244,0-.146,0-.292,0-.685a6.515,6.515,0,0,1,.123-1.643c.827-.752.682-1.511.207-2.413,0-.483,0-.834,0-1.185l.106-.015c.667-.272.634-.6.232-1.087a6.928,6.928,0,0,1,.407-1.279c.626-2.057,1.412-2.659,3.436-2.547.7.039,1.383.208,2.184.318a.85.85,0,0,1,.56.115c.809.9,1.589,1.7,2.413,2.461a6.312,6.312,0,0,0,.9.461,3.437,3.437,0,0,0,.306.371,2.672,2.672,0,0,0,.681,1,11.885,11.885,0,0,1,3.987,4.676c1.116,2.019,2.124,1.968,3.88,1.129a9.143,9.143,0,0,1,1.948-.7,20.254,20.254,0,0,1,4.613-.809,5.215,5.215,0,0,0,2.833-.848,3.33,3.33,0,0,1,1.417-.273c.818-.042,1.639,0,2.458-.017.322-.006.761.044.943-.137.794-.789,1.513-1.654,2.258-2.491.107-.033.193-.095.393-.3.565-.449,1.013-.756,1.421-1.11a10.284,10.284,0,0,0,3.126-3.855c.034-.106.1-.192.384-.307a45.754,45.754,0,0,1,4.66-.974,2.32,2.32,0,0,1,2.534,2.2,10.883,10.883,0,0,1,.178,1.125,36.475,36.475,0,0,1,0,5.885,15.829,15.829,0,0,0-.175,3.354,3.569,3.569,0,0,0,1.228,2.394c1.207,1.171,3.021,1.849,3.306,3.825.013.091.151.157.206.25.709,1.2,1.5,2.36,2.1,3.612.871,1.819.61,3.99,1.683,5.768.051.084.021.215.032.324.248,2.511.366,2.617,2.871,2.507a4.637,4.637,0,0,0,.97-.126c2.19-.577,4.354-1.279,6.568-1.73a46.994,46.994,0,0,1,7.249-1.05c2.717-.12,5.452.228,8.18.254a11.815,11.815,0,0,1,5.129.749c2.909,1.392,2.772.16,3.812-1.795.026-.048.042-.1.065-.151.791-1.674,1.539-3.37,2.395-5.01a6.069,6.069,0,0,1,1.3-1.459,16.61,16.61,0,0,1,1.639-1.349c2.145-1.558,4.486-2.581,7.192-2.079a3.213,3.213,0,0,0,2.028-.2,1.626,1.626,0,0,1,1.244-.04c2.087,1.131,4.563,1.59,6.166,3.58.239.3.765.363,1.158.536,0,0,0,.164,0,.369a3.639,3.639,0,0,1-.083,1.016c.237,1.089.557,2.107.878,3.124.175.553.324,1.116.535,1.654C1397.35,592.717,1396.825,594.269,1397.813,595.455Z" transform="translate(-2.713 -2.7)" fill="#fbf5ef"/>
    <g id="グループ_416" data-name="グループ 416" transform="translate(1273.189 559.174)">
      <path id="パス_573" data-name="パス 573" d="M1325.6,645.919c-1.676-.641-2.208-2.537-2.714-4.087-1.125-2.624.931-4.981,3.665-4.051,3.324-2.124,6.923,1.713,5.208,5.007a5.751,5.751,0,0,1-2.7,2.161A3.024,3.024,0,0,1,1325.6,645.919Z" transform="translate(-1299.673 -599.799)" fill="#fff"/>
      <path id="パス_574" data-name="パス 574" d="M1320.6,657.767c-3.25-.283-4.8-4.084-3.23-6.783.585-1.232,1.507-2.125,1.486-3.561.219-.872.843-1.5.677-2.442-2.017.409-4.029-.206-5.96-.735a29.3,29.3,0,0,0-7.306-.666,7.413,7.413,0,0,1-2.208,2.512c-1.075,2.95-2.116,8.6-6.03,8.629-2.829,2.33-8.894,2.011-8.953-2.536a4.506,4.506,0,0,1,.708-2.214,12.339,12.339,0,0,1,2.658-5.245,53.416,53.416,0,0,1-4.335-8.491c-1.675-3.612-4.749-6.587-5.558-10.574-.637-2.632.071-5.285.539-7.851-.716-2.579-1.918-5.175-1.911-7.876-2.223-2.976-4.493-6.149-4.747-9.98-1.464-1.721-.342-4.179-.734-6.211-.126-2.417-1.331-5.338.218-7.481.051-1.665,0-3.65,1.625-4.627a49.761,49.761,0,0,1-.087-7.084c.363-2.526-.672-6.836,1.726-8.381-.408-3.138,2.089-6.592,5.243-4.264,3.415-.011,5.146,3.816,6.78,6.295,2.944-.2,4.519,2.707,5.776,4.917a3.183,3.183,0,0,1,.508-.262,6.509,6.509,0,0,1,2.094-.425c3.172-3.836,9.444-1.829,13.813-2.088a13.821,13.821,0,0,1,7.015-7.434,3.9,3.9,0,0,1,7.585-.327,9.48,9.48,0,0,1,.411,5.561c-.341,2.622-.78,5.228-1.064,7.857.081.167.162.335.243.5q.147.292.29.588c2.926.953,6.126,8.91,7.438,11.805,2.024-1.977,5.047-.006,4.632,2.628,2.45-.46,4.9-.988,7.372-1.281,1.98-.4,4.053-.132,5.991-.646,5.746-1.308,11.806-2.3,17.658-1.148,1.221-3.833,3.494-6.786,7.683-7.353a8.409,8.409,0,0,1,12.382-1.652,12.775,12.775,0,0,1,3.526,4.208,6.7,6.7,0,0,1,1.889,2.585c2.419,5.729,1.322,12.241.151,18.148-.489,4.285-1.762,8.971-4.811,12.151-.643,4.59-3.28,8.442-4.9,12.675h0a5.074,5.074,0,0,1-3.765,3.611c.758,6.293-1.16,13.4-7.007,16.533a8.945,8.945,0,0,1-8.727,3.808c-3.76-.733-5.712-6.09-1.294-7.4,2.005-1.922,1.62-4.893.567-7.207l-.273.045a9.16,9.16,0,0,1-.972.106c-1.328,2.12-1.836,4.739-3.71,6.516a11.575,11.575,0,0,1-5.636,2.847,3.818,3.818,0,0,1-2.173.666,3.648,3.648,0,0,1-3.343-4.983c-2.268.265-4.234-.875-6.3-1.506-2.9.023-6.032.124-8.626-1.362a25.073,25.073,0,0,1-5.736,1.834C1330.931,650.523,1329.808,657.339,1320.6,657.767Zm46.168-5.892.034,0c-.089,0-.178-.007-.269-.014Zm-35.054-46.322.065-.08c.069-.083.139-.166.21-.246q0-.166,0-.333a4.048,4.048,0,0,1-.567.112Q1331.562,605.28,1331.709,605.553Z" transform="translate(-1275.127 -559.742)" fill="#fff"/>
    </g>
    <path id="パス_575" data-name="パス 575" d="M1327.605,645.79a3.382,3.382,0,0,1-1.663-.717c-2.543-.117-3.709-3.954-1.741-5.521a4.925,4.925,0,0,1,3.367-2.9c1.43-.147,2.993-.516,4.208.544C1335.366,640.113,1331.672,646.1,1327.605,645.79Z" transform="translate(-26.815 -40.263)" fill="#d97b0e"/>
    <g id="グループ_417" data-name="グループ 417" transform="translate(1271.381 558.645)">
      <path id="パス_576" data-name="パス 576" d="M1479.147,715.583a13.9,13.9,0,0,1-3.5,7.089c-.708.837-1.388,1.7-2.077,2.551a5.92,5.92,0,0,1-7.267,2.058c-1.136-.408-2.191.177-3.269.374a2.76,2.76,0,0,1-3.541-2.636,9.583,9.583,0,0,1,.126-2.611,9.187,9.187,0,0,1,2.024-4.087c.369-.451.827-.79,1.424-.459.637.353.471.957.254,1.453a23.784,23.784,0,0,0-1.11,2.193,19.128,19.128,0,0,0-.639,3.173c-.09.661.335,1,1.1,1.019.056-.349.113-.705.17-1.061.051-.325.08-.655.154-.974.24-1.025.87-1.7,1.436-1.468.807.327.935.944.654,1.755a6.123,6.123,0,0,0-.022,1.6l1.519-2.452c1.719.239.945,1.589,1.25,2.6a3.149,3.149,0,0,0,3.336-.988,28.755,28.755,0,0,0,5.729-7.962,18.087,18.087,0,0,0,1.125-6.271,28.16,28.16,0,0,1,.683-4.7,5.74,5.74,0,0,1,1.143-2.14c.274-.351.864-.455,1.311-.67l.335.233a9.259,9.259,0,0,1-.363,1.951,22.534,22.534,0,0,0-1.328,6.744C1479.7,713.089,1479.393,714.265,1479.147,715.583Z" transform="translate(-1368.682 -633.31)"/>
      <path id="パス_577" data-name="パス 577" d="M1288.726,563.7a24.87,24.87,0,0,0-2.566-1.253,1.119,1.119,0,0,0-1.571.778c-.861,2.922-2.239,5.731-2.244,8.852,0,2.279-.419,4.6.417,6.829.223.594-.073.928-.622,1.1a2.226,2.226,0,0,1-1.516-1.949,21.28,21.28,0,0,1,.835-11.63,23.142,23.142,0,0,0,.891-2.818c.894-3.728,3.06-3.9,5.6-2.729a20.543,20.543,0,0,1,6.237,4.745c1.343,1.434,2.65,2.9,4.008,4.324a9.643,9.643,0,0,1,1.922,2.951c-1.208.785-1.2.781-2.038-.089-2.08-2.171-4.134-4.368-6.26-6.494C1290.9,565.388,1289.823,564.615,1288.726,563.7Z" transform="translate(-1275.938 -559.465)"/>
      <path id="パス_578" data-name="パス 578" d="M1326.344,645.344c-3.534-.577-5.114-2.952-4.89-7.188-1.946-1.305-1.954-1.323-1.03-2.691.439.134.9.284,1.37.415a3.353,3.353,0,0,0,3.89-1.358c.746-1,1.32-1.061,2.073-.167,1.231,1.459,2.637,2.083,4.467,1.155.519-.263,1.1-.447,1.47.135a1.145,1.145,0,0,1-.4,1.588,20.97,20.97,0,0,1-1.79,1.1,6.276,6.276,0,0,1-1.857,5.6A4.145,4.145,0,0,1,1326.344,645.344Zm-.882-5.2c-.067-.792-.134-1.584-.213-2.52l-2.3.669a26.083,26.083,0,0,0,.994,3.69,2.553,2.553,0,0,0,4.334.5,7.844,7.844,0,0,0,1.6-4.308l-2.15-.853a25.378,25.378,0,0,1-.614,3.059C1326.816,641.3,1326.3,641.272,1325.463,640.148Z" transform="translate(-1296.445 -597.488)"/>
      <path id="パス_579" data-name="パス 579" d="M1370.6,563.961c.107,2.868.263,5.6.21,8.329a7.1,7.1,0,0,1-.9,2.772c-.157.326-.781.427-1.191.631-.14-.38-.3-.754-.408-1.143a1.191,1.191,0,0,1-.008-.65c.864-2.622.628-5.319.4-7.976a18,18,0,0,0-1.134-4.237,1.633,1.633,0,0,0-2.022-.994,10.35,10.35,0,0,0-5.617,2.864,30.275,30.275,0,0,0-5.308,6.228,1.383,1.383,0,0,1-1.6.835,1.3,1.3,0,0,1-.13-2.017c1.416-1.732,2.85-3.45,4.322-5.134a14.153,14.153,0,0,1,6.751-4.477c3.121-.9,5.06-.062,5.953,2.8C1370.132,562.47,1370.354,563.146,1370.6,563.961Z" transform="translate(-1313.334 -558.645)"/>
      <path id="パス_580" data-name="パス 580" d="M1372.069,747.1a6.149,6.149,0,0,0,1.01-1.752c.494-2.459.908-4.936,1.287-7.416.194-1.272.255-1.355,1.684-.989a8.872,8.872,0,0,1,.044,4.368c-.162,1.241-.466,2.466-.74,3.691a7.79,7.79,0,0,1-2.813,3.922,2.352,2.352,0,0,1-2.493.2c-.4-.158-.779-.389-1.183-.6-1.3,1-2.883.78-4.336.908a2.382,2.382,0,0,1-2.3-2.667,30.469,30.469,0,0,1,.652-3.687q.26-1.358.555-2.709a1.859,1.859,0,0,1,.306-.895,1.3,1.3,0,0,1,.96-.4,1.1,1.1,0,0,1,.69.735,5.807,5.807,0,0,1-.309,3.374,21.012,21.012,0,0,0-.915,2.793c-.222.869.089,1.5,1.262,1.7a5.179,5.179,0,0,1,.225-1.348c.183-.407.515-.95.871-1.029.556-.123,1,.265,1.088.944a11.587,11.587,0,0,0,.437,1.518l1.206-2.325c1.47-.008,1.077,1.183,1.454,2.124A12.077,12.077,0,0,0,1372.069,747.1Z" transform="translate(-1318.379 -650.791)"/>
      <path id="パス_581" data-name="パス 581" d="M1444.621,725.61a5.666,5.666,0,0,1-1.295,5.484c-.711.9-1.351,1.855-2.109,2.71A6.442,6.442,0,0,1,1435.2,736a13.243,13.243,0,0,0-2.064.094,11.822,11.822,0,0,1-1.426-.047c-.375-.035-.743-.185-1.116-.2-2.109-.059-3.131-1.331-2.714-3.423a6.713,6.713,0,0,1,.3-1.1c.431-1.12.89-2.23,1.356-3.389,1.38-.407,1.567-.3,1.571,1.105a4.55,4.55,0,0,1-.288,1.421c-.225.672-.537,1.315-.782,1.982a1.492,1.492,0,0,0,.215,1.628c.618-.974.453-2.385,1.766-2.7,1.412.764-.067,2.332,1.03,3.3.418-.949.374-2.065,1.412-2.516,1.049.123,1.007.975,1.119,1.774,1.685.616,2.847-.29,3.861-1.384a20.867,20.867,0,0,0,3.636-5.23c.318-.671.6-1.394,1.535-1.586C1444.645,725.637,1444.621,725.61,1444.621,725.61Z" transform="translate(-1352.297 -645.025)"/>
      <path id="パス_582" data-name="パス 582" d="M1310.475,746.307c.979.567.979.567,1.383,1.982a3.68,3.68,0,0,0,2.9-1.777,28.543,28.543,0,0,0,1.954-3.208c.136-.233.185-.519.329-.746a1.006,1.006,0,0,1,1.393-.465c.527.263.562.713.4,1.261a10.381,10.381,0,0,1-3.206,5.051c-.455.393-.906.795-1.393,1.146a3.813,3.813,0,0,1-2.788.7,13.685,13.685,0,0,0-3.9-.189c-2.178.4-4.054-1.639-4.249-3.643-.225-2.315.754-4.391,1.621-6.455a1.174,1.174,0,0,1,1.036-.494.965.965,0,0,1,.772,1.24c-.274.889-.6,1.763-.832,2.663a17.012,17.012,0,0,0-.478,2.559,1.676,1.676,0,0,0,1.385,1.963c.111-.616.2-1.2.325-1.781.1-.478.22-1.141.849-.951a2.2,2.2,0,0,1,1.056,1.083,4.194,4.194,0,0,1,.166,1.4A15.014,15.014,0,0,1,1310.475,746.307Z" transform="translate(-1287.88 -652.187)"/>
      <path id="パス_583" data-name="パス 583" d="M1458.078,617.445c-1.729-.836-3.318-1.693-4.973-2.391a8.636,8.636,0,0,0-5.765-.591,11.926,11.926,0,0,1-2.124.192c-.258-.7.108-.978.567-1.221a8.971,8.971,0,0,1,8.213-.281c1.347.595,2.714,1.146,4.082,1.722.347-1.4.594-2.831,1.063-4.181a6.38,6.38,0,0,1,2.7-3.186.926.926,0,0,1,.385,1.406c-.466.863-.838,1.777-1.247,2.671a6.116,6.116,0,0,0-.407,3.54c.121.8.214,1.615.266,2.427.045.694-.309.938-1.013.686C1459.265,618.035,1458.734,617.745,1458.078,617.445Z" transform="translate(-1361.271 -583.924)"/>
      <path id="パス_584" data-name="パス 584" d="M1457.209,720.571c-.05-.446-.114-.9-.2-1.489-.589.2-.987.342-1.393.463a3.62,3.62,0,0,1-2.992-.411,1.146,1.146,0,0,1-.438-1.579c.3-.674.849-.642,1.373-.344a1.978,1.978,0,0,0,2.633-.533c.644-.641,1.325-1.39,2.385-.417a2.208,2.208,0,0,0,.626,2.817,3.987,3.987,0,0,1,.91,3.226,1.038,1.038,0,0,1-1.109,1.082c-.517-.883-1.058-1.808-1.716-2.793C1457.171,720.531,1457.2,720.559,1457.209,720.571Z" transform="translate(-1364.847 -639.946)"/>
      <path id="パス_585" data-name="パス 585" d="M1418.938,620.147a4,4,0,0,1,3.8,1.028c-.074.062-.148.175-.213.17a16.941,16.941,0,0,0-6.186,1.034,40.076,40.076,0,0,0-5.286,1.665,1.343,1.343,0,0,1-1.149-.174c-.165-.124-.122-.747.039-1.024a2.3,2.3,0,0,1,1-.986,16.4,16.4,0,0,1,3.426-1.058C1415.856,620.574,1417.3,619.98,1418.938,620.147Z" transform="translate(-1342.991 -590.412)"/>
      <path id="パス_586" data-name="パス 586" d="M1415.13,729.069a7.382,7.382,0,0,1-5.111-.117c-.978-.332-1.89-.858-2.836-1.286a1.921,1.921,0,0,1-1.274-2.272,1.269,1.269,0,0,1,1.954.064c1.564,1.5,3.591,1.838,5.623,1.937a12.34,12.34,0,0,0,2.849-.522C1416.753,728.022,1416.753,728.022,1415.13,729.069Z" transform="translate(-1340.959 -644.691)"/>
      <path id="パス_587" data-name="パス 587" d="M1495.323,595.892c.333.737.333.737-.04,1.487a10.108,10.108,0,0,0-5.394.841,9,9,0,0,0-1.558,1.132c-.4.275-.826.5-1.317.8a2.5,2.5,0,0,1,.9-3.221C1490.143,595.285,1492.636,595.187,1495.323,595.892Z" transform="translate(-1382.815 -577.7)"/>
      <path id="パス_588" data-name="パス 588" d="M1290.233,678.043c.426,2.517.249,5.025,1.33,7.317a1.178,1.178,0,0,1,.128.793,1.816,1.816,0,0,1-.657.975,1.025,1.025,0,0,1-.925-.388,11.533,11.533,0,0,1-1.286-3.162,26.19,26.19,0,0,1-.156-4.722C1288.691,677.958,1289.3,677.651,1290.233,678.043Z" transform="translate(-1280.307 -620.329)"/>
      <path id="パス_589" data-name="パス 589" d="M1513.971,598.817c1.312,1.169,2.615,2.179,3.721,3.372.977,1.055.879,1.145.641,2.884-.914.307-1.357-.336-1.844-.917-1.222-1.458-2.437-2.923-3.705-4.34-.216-.242-.712-.21-1.028-.393a7.606,7.606,0,0,1-.976-.82A2.519,2.519,0,0,1,1513.971,598.817Z" transform="translate(-1395.234 -579.069)"/>
      <path id="パス_590" data-name="パス 590" d="M1520.485,659.189c.077-.795.389-1.358,1.1-1.28.664.072.956.671,1,1.32.093,1.23.4,2.506-1.1,3.264-.284.143-.294.849-.411,1.3-.2.774-.2,1.642-1.175,1.977-.764.263-1.141.025-1.082-.775a6,6,0,0,0,.081-.945,2.251,2.251,0,0,1,1.73-2.628C1520.584,660.709,1520.534,660.013,1520.485,659.189Z" transform="translate(-1399.393 -609.995)"/>
      <path id="パス_591" data-name="パス 591" d="M1365.207,581.92a10.65,10.65,0,0,1,.809-2.086,2.429,2.429,0,0,1,1.061-.945c.912-.394,1.314,0,1.125,1-.05.264-.141.521-.289,1.056a4.331,4.331,0,0,1,1.237-.508,2.626,2.626,0,0,1,.938.243c.295,1,.548,1.738.717,2.5.063.282.034.741-.141.877a.914.914,0,0,1-.886-.042c-.746-.657-1.42-1.4-2.119-2.1C1366.253,583.273,1365.972,583.284,1365.207,581.92Z" transform="translate(-1319.922 -569.04)"/>
      <path id="パス_592" data-name="パス 592" d="M1300.072,587.828c-.713-.264-1.3-.521-1.867-.768l-3.3,2.4-1.008-1.118c.49-.732.925-1.336,1.311-1.971.516-.849,1.236-.379,1.893-.307l.88-1.561a23.254,23.254,0,0,1,2.38,1.393C1301.239,586.556,1301.138,587.243,1300.072,587.828Z" transform="translate(-1283.031 -572.024)"/>
      <path id="パス_593" data-name="パス 593" d="M1511.322,679.966c-.107-.838-.19-1.539-.318-2.231-.089-.481-.261-.947-.358-1.428-.129-.642-.057-1.223.7-1.434.719-.2.971.349,1.206.836a9.495,9.495,0,0,1,.864,4.615,2.947,2.947,0,0,1-.654,1.449c-.437.6-.487.56-1.529.106C1511.263,681.3,1511.294,680.7,1511.322,679.966Z" transform="translate(-1395.139 -618.754)"/>
      <path id="パス_594" data-name="パス 594" d="M1523.609,616.18a16.232,16.232,0,0,1,1.579,2.214c.515,1.044.081,1.7-1.25,2.044-.205-.34-.429-.7-.642-1.067a5.641,5.641,0,0,0-2.6-2.626.863.863,0,0,1-.518-1.317.994.994,0,0,1,1.393-.482A22.007,22.007,0,0,1,1523.609,616.18Z" transform="translate(-1400.025 -587.707)"/>
      <path id="パス_595" data-name="パス 595" d="M1271.756,630.654a2.384,2.384,0,0,1,.362-2.979,11.467,11.467,0,0,1,1.533-1.664,1.048,1.048,0,0,1,1.02-.01c.277.239.577.939.457,1.072-1.062,1.177-1.44,2.953-3.1,3.6C1271.983,630.7,1271.922,630.684,1271.756,630.654Z" transform="translate(-1271.381 -593.426)"/>
      <path id="パス_596" data-name="パス 596" d="M1403.1,629.2c-.415-.938-.778-1.765-1.172-2.663l1.383-.815a7.439,7.439,0,0,1,2.2,3.806.98.98,0,0,1-.655,1.3.913.913,0,0,1-1.228-.482A9.953,9.953,0,0,1,1403.1,629.2Z" transform="translate(-1338.922 -593.348)"/>
      <path id="パス_597" data-name="パス 597" d="M1323.291,732.959c.265.549.459,1.012.623,1.4a1.362,1.362,0,0,1-2.164.026,4.374,4.374,0,0,1-1.417-3.048,1.214,1.214,0,0,1,.362-.97,1.24,1.24,0,0,1,1.022.2,2.786,2.786,0,0,1,.689.885C1322.695,731.912,1322.95,732.4,1323.291,732.959Z" transform="translate(-1296.705 -647.459)"/>
      <path id="パス_598" data-name="パス 598" d="M1329.764,628.773c-.319-1.3-.151-1.72.788-2.222a2.187,2.187,0,0,1,2.46.208,1.4,1.4,0,0,1-.418,2.313A2.347,2.347,0,0,1,1329.764,628.773Z" transform="translate(-1301.509 -593.632)"/>
      <path id="パス_599" data-name="パス 599" d="M1524.956,631.376c-.365-.608-.667-1.119-1.041-1.751.313-.3.6-.789.906-.8a1.632,1.632,0,0,1,1.272.519,14.74,14.74,0,0,1,1.474,2.878c.257.677-.259,1.1-.9,1.33C1525.589,633.276,1525.511,632.207,1524.956,631.376Z" transform="translate(-1402.03 -594.949)"/>
      <path id="パス_600" data-name="パス 600" d="M1525.811,646.871c-.3-1.358-.572-2.62-.727-3.9a1.006,1.006,0,0,1,.572-.807,1.319,1.319,0,0,1,1.089.431,5.051,5.051,0,0,1,.438,3.792C1527.014,646.963,1526.672,647.581,1525.811,646.871Z" transform="translate(-1402.634 -601.854)"/>
      <path id="パス_601" data-name="パス 601" d="M1351.584,614.723a3.577,3.577,0,0,1,.528.751,1.877,1.877,0,0,1-.262,2.093,1.78,1.78,0,0,1-2.239-.2,1.826,1.826,0,0,1-.587-2.182c.421-.839.988-1.06,2.039-.774A2.434,2.434,0,0,1,1351.584,614.723Z" transform="translate(-1311.466 -587.436)"/>
      <path id="パス_602" data-name="パス 602" d="M1356.677,732.373c-.453-1.841-.438-1.867,1.061-2.116.722.762,1.385,1.535,2.129,2.221a1.028,1.028,0,0,1,.271,1.3.83.83,0,0,1-1.246.344A17.2,17.2,0,0,1,1356.677,732.373Z" transform="translate(-1315.375 -647.429)"/>
      <path id="パス_603" data-name="パス 603" d="M1304.1,720.278c-1.442-.484-1.92-1.66-2.364-2.823a1.1,1.1,0,0,1,.6-1.51c.711-.279,1.044.244,1.359.817.362.659.842,1.253,1.261,1.881C1305.591,719.593,1305.48,719.833,1304.1,720.278Z" transform="translate(-1287.035 -639.984)"/>
      <path id="パス_604" data-name="パス 604" d="M1278.994,650a1.4,1.4,0,0,1,1.412-1.428c.2.351.613.75.62,1.156a13.52,13.52,0,0,1-.287,2.908c-.068.335-.531.833-.8.822a1.3,1.3,0,0,1-.9-.774,6.307,6.307,0,0,1-.172-1.75A5.65,5.65,0,0,1,1278.994,650Z" transform="translate(-1275.257 -605.169)"/>
      <path id="パス_605" data-name="パス 605" d="M1333.847,734.084c.507.42.934.754,1.35,1.1a.741.741,0,0,1,.17,1.141,1.493,1.493,0,0,1-1.091.438,3.175,3.175,0,0,1-2.592-3.216C1332.955,732.8,1332.955,732.8,1333.847,734.084Z" transform="translate(-1302.579 -648.868)"/>
      <path id="パス_606" data-name="パス 606" d="M1296.226,706.12c-1.375-1.034-1.268-2.413-1.078-3.746a1.326,1.326,0,0,1,.935-.891c.312-.007.826.523.919.9a13.446,13.446,0,0,1,.365,2.883C1297.379,705.816,1297.095,706.335,1296.226,706.12Z" transform="translate(-1283.62 -632.542)"/>
      <path id="パス_607" data-name="パス 607" d="M1398.546,606.023c-1.525.847-2.782.049-3.985-.58a.948.948,0,0,1,.236-1.68,4.46,4.46,0,0,1,3.776,1.655A1.234,1.234,0,0,1,1398.546,606.023Z" transform="translate(-1334.892 -581.956)"/>
      <path id="パス_608" data-name="パス 608" d="M1400.339,617.669c-.705-.592-1.326-1.112-1.923-1.659-.443-.405-.717-1.005-.234-1.412a1.537,1.537,0,0,1,1.441-.132,8.853,8.853,0,0,1,1.97,1.892,1.389,1.389,0,0,1-.038,1.185C1401.34,617.989,1400.869,618.019,1400.339,617.669Z" transform="translate(-1336.85 -587.46)"/>
      <path id="パス_609" data-name="パス 609" d="M1439.518,723.723c.478.125.842.224,1.238.33-1.52,1.582-2.146,1.792-3.49,1.206-1.59-.693-1.668-1.2-.441-2.49C1437.7,723.085,1438.554,723.39,1439.518,723.723Z" transform="translate(-1356.536 -643.555)"/>
      <path id="パス_610" data-name="パス 610" d="M1387.676,598.163a9.662,9.662,0,0,1,1.7-.43,4.4,4.4,0,0,1,1.58.19c.245.076.581.47.553.676-.043.317-.315.788-.577.856a15.244,15.244,0,0,1-2.891.467,1.377,1.377,0,0,1-1.029-.568C1386.67,598.819,1387.083,598.454,1387.676,598.163Z" transform="translate(-1331.139 -578.862)"/>
      <path id="パス_611" data-name="パス 611" d="M1278.328,607.1c-.781.571-1.915.015-2.385,1.016-.282-.182-.791-.356-.8-.548a1.493,1.493,0,0,1,.42-1.127,13.932,13.932,0,0,1,2.5-1.444,1.24,1.24,0,0,1,1.127.178.989.989,0,0,1-.068,1.455A3.6,3.6,0,0,1,1278.328,607.1Z" transform="translate(-1273.328 -582.593)"/>
      <path id="パス_612" data-name="パス 612" d="M1314.627,616.662a1.466,1.466,0,0,1,.621-1.532,1.817,1.817,0,0,1,2.364.32,1.459,1.459,0,0,1-.128,2.052,1.621,1.621,0,0,1-2.333.114A2.836,2.836,0,0,1,1314.627,616.662Z" transform="translate(-1293.75 -587.716)"/>
      <path id="パス_613" data-name="パス 613" d="M1274.355,617.087a2.647,2.647,0,0,1,1.208.05.829.829,0,0,1,.137,1.47,18.894,18.894,0,0,1-2.049,1.309.732.732,0,0,1-1.1-.328,1.123,1.123,0,0,1,0-.993A13.219,13.219,0,0,1,1274.355,617.087Z" transform="translate(-1271.926 -588.858)"/>
      <path id="パス_614" data-name="パス 614" d="M1386.619,728.663a5.427,5.427,0,0,0,.565.216c.487.117,1.15.263.855.874a1.918,1.918,0,0,1-1.347.936,2.444,2.444,0,0,1-2.4-1.826C1385.03,727.849,1385.03,727.849,1386.619,728.663Z" transform="translate(-1329.798 -646.3)"/>
      <path id="パス_615" data-name="パス 615" d="M1332.294,582.817c-.4-.065-.822-.08-.949-.281a1.578,1.578,0,0,1,.237-1.816,1.956,1.956,0,0,1,1.667-1.132c.206,0,.563.5.572.784A2.578,2.578,0,0,1,1332.294,582.817Z" transform="translate(-1302.299 -569.479)"/>
      <path id="パス_616" data-name="パス 616" d="M1326.112,580.548a8.2,8.2,0,0,1-.462,2.264c-.158.363-.734.806-1.056.76a1.294,1.294,0,0,1-.8-1.01,4.5,4.5,0,0,1,.705-2.06C1324.844,580,1325.514,579.894,1326.112,580.548Z" transform="translate(-1298.498 -569.74)"/>
      <path id="パス_617" data-name="パス 617" d="M1285.109,658.5c.872.1,1.173.6,1.085,1.273a5.282,5.282,0,0,1-.523,1.967c-.286.486-1.143.156-1.436-.482A2.764,2.764,0,0,1,1285.109,658.5Z" transform="translate(-1277.973 -610.306)"/>
      <path id="パス_618" data-name="パス 618" d="M1276.877,640.68c.46,1.009-.052,1.765-.421,2.53a.813.813,0,0,1-1.231.385,1.417,1.417,0,0,1-.49-1.048C1274.759,641.136,1275.515,640.464,1276.877,640.68Z" transform="translate(-1273.116 -601.065)"/>
      <path id="パス_619" data-name="パス 619" d="M1504.057,692.12a1.945,1.945,0,0,1,1.379,2.378c-.146.519-.19,1.275-1.072,1.188a1.049,1.049,0,0,1-.855-1.469C1503.708,693.537,1502.964,692.634,1504.057,692.12Z" transform="translate(-1391.438 -627.698)"/>
      <path id="パス_620" data-name="パス 620" d="M1343.658,577.55a2.154,2.154,0,0,1-1.121,2.114,1.483,1.483,0,0,1-1.311.013c-.216-.119-.317-.844-.167-1.147a11.1,11.1,0,0,1,1.266-1.7A12.5,12.5,0,0,1,1343.658,577.55Z" transform="translate(-1307.392 -568.051)"/>
      <path id="パス_621" data-name="パス 621" d="M1344.758,733.907c-.546,1.042-1.354.748-2,.449a1.57,1.57,0,0,1-.861-1.773c.1-.58.528-.97,1.03-.658C1343.669,732.387,1344.654,732.693,1344.758,733.907Z" transform="translate(-1307.848 -648.234)"/>
      <path id="パス_622" data-name="パス 622" d="M1397.508,724.143c.344,1.188.238,1.425-.652,1.461a3.358,3.358,0,0,1-1.272-.21.975.975,0,0,1-.643-1.32c.2-.534.707-.62,1.239-.427C1396.589,723.8,1397,723.94,1397.508,724.143Z" transform="translate(-1335.265 -643.96)"/>
      <path id="パス_623" data-name="パス 623" d="M1294.654,633.639c-.856-1.1-.606-2.364.49-2.77a1.024,1.024,0,0,1,.889.086,1.27,1.27,0,0,1,.322.978C1296.19,632.8,1295.479,633.252,1294.654,633.639Z" transform="translate(-1283.156 -595.979)"/>
      <path id="パス_624" data-name="パス 624" d="M1363.075,632.337c1.332-.7,1.332-.7,2.195.9-.316.474-.679.954-1.374.669C1363.283,633.655,1362.713,633.284,1363.075,632.337Z" transform="translate(-1318.76 -596.537)"/>
      <path id="パス_625" data-name="パス 625" d="M1368.225,733.077c.985.158,1.29.659,1.09,1.5-1.157.309-1.722.208-1.906-.421C1367.242,733.576,1367.3,733.045,1368.225,733.077Z" transform="translate(-1321.023 -648.887)"/>
      <path id="パス_626" data-name="パス 626" d="M1298.192,638.99a1.9,1.9,0,0,1-.042-.735c.179-.505.516-.871,1.11-.664.456.159.629,1.167.249,1.587C1299.086,639.645,1298.6,639.814,1298.192,638.99Z" transform="translate(-1285.216 -599.457)"/>
      <path id="パス_627" data-name="パス 627" d="M1438.678,621.059a2.438,2.438,0,0,1,.485.366l-.793.108A1.774,1.774,0,0,1,1438.678,621.059Z" transform="translate(-1357.773 -590.935)"/>
    </g>
  </g>
</svg>
