<svg xmlns="http://www.w3.org/2000/svg" xmlns:xlink="http://www.w3.org/1999/xlink" width="35.845" height="37.001" viewBox="0 0 35.845 37.001">
  <defs>
    <clipPath id="clip-path">
      <rect id="長方形_768" data-name="長方形 768" width="35.845" height="37.001" transform="translate(0 0)" fill="#fff" stroke="#707070" stroke-width="1"/>
    </clipPath>
    <clipPath id="clip-path-2">
      <rect id="長方形_767" data-name="長方形 767" width="29.479" height="27.352" transform="translate(0 0)" fill="#fff"/>
    </clipPath>
  </defs>
  <g id="マスクグループ_130" data-name="マスクグループ 130" transform="translate(0)" opacity="0.8" clip-path="url(#clip-path)">
    <g id="グループ_751" data-name="グループ 751" transform="translate(38.459 23.433) rotate(149)">
      <g id="グループ_750" data-name="グループ 750" transform="translate(0)" clip-path="url(#clip-path-2)">
        <path id="パス_749" data-name="パス 749" d="M16.105,16.815a10.394,10.394,0,0,1-2.595,1.4,3.872,3.872,0,0,1-4.242-.847c-2.258-2.159-4.535-4.3-6.741-6.51A10.284,10.284,0,0,1,.7,8.394,5.308,5.308,0,0,1,4.028.564,27.328,27.328,0,0,1,7.589,0c2.939.339,5.819.627,8.684,1.029a13.218,13.218,0,0,1,2.71.866,3.975,3.975,0,0,1,2.572,3.112,8.26,8.26,0,0,1-.344,5.05,15.718,15.718,0,0,1-5.1,6.757" transform="translate(3.575 0)" fill="#fff"/>
        <path id="パス_750" data-name="パス 750" d="M3.474.009A2.781,2.781,0,0,1,6,1.682,36.008,36.008,0,0,1,7.17,5.329C7,7.747,6,8.857,3.6,9.157,2.066,9.349.535,8.049.125,6.16a6.834,6.834,0,0,1,.962-4.8A2.263,2.263,0,0,1,3.474.009" transform="translate(5.656 17.409)" fill="#fff"/>
        <path id="パス_751" data-name="パス 751" d="M4.1.034C5.722.259,6.768,1.659,6.99,3.7a16.606,16.606,0,0,1-1.2,3.141,3,3,0,0,1-5.35-.42A4.985,4.985,0,0,1,.265,2.74,3.493,3.493,0,0,1,4.1.034" transform="translate(16.66 19.059)" fill="#fff"/>
        <path id="パス_752" data-name="パス 752" d="M5.742,3.521a11.892,11.892,0,0,1-.288,1.487C4.969,6.625,3.97,7.029,2.3,6.665.16,6.2-.468,4.316.338,2.179A2.962,2.962,0,0,1,3.57.041c1.368.241,2.193,1.443,2.172,3.48" transform="translate(0 11.163)" fill="#fff"/>
        <path id="パス_753" data-name="パス 753" d="M4.353,6.384a2.112,2.112,0,0,1-2.492-.547A5.778,5.778,0,0,1,0,2.065,1.984,1.984,0,0,1,2.789.155a4.668,4.668,0,0,1,2.8,3.978,2.218,2.218,0,0,1-1.24,2.252" transform="translate(23.887 12.971)" fill="#fff"/>
      </g>
    </g>
  </g>
</svg>
