<svg xmlns="http://www.w3.org/2000/svg" width="70" height="85.581" viewBox="0 0 70 85.581">
  <g id="グループ_623" data-name="グループ 623" transform="translate(-172.29 -333.817)">
    <path id="パス_558" data-name="パス 558" d="M284.6,361.867c-.407-3.4-.759-8.227-3.177-11.049a1.106,1.106,0,0,0-.179-1.013c-1.1-1.57-1.865-3.428-3.458-4.579a1.162,1.162,0,0,0-1.151-.075c-1.981-2.145-5.394-3.316-7.947-4.172-.064-.019-.12-.026-.179-.041-2.5-1.42-4.986-2.684-7.954-2.519a14.919,14.919,0,0,0-5.962,2c-2.512,1.319-6.605,3.839-7.682,6.978-.052.023-.108.038-.164.067-6.979,3.622-6.186,12.851-5.543,19.452a35.325,35.325,0,0,0,4.4,14.712c2.086,3.446,5.652,4.429,9.468,4.156a.255.255,0,0,0,.056-.011,1.3,1.3,0,0,0,1.394-.95c.176-.875.381-1.742.561-2.617a1.384,1.384,0,0,0-.512-1.413c.056-.516.12-1.032.183-1.551.138-1.091-1.185-1.484-1.97-1.129-3.97,1.8-9.569-4.594-4.657-6.9a1.2,1.2,0,0,0,.262-.161,1.438,1.438,0,0,0,1.764.553c.919.348,2.168-.325,1.753-1.5a8.267,8.267,0,0,1-.422-2.841,28.932,28.932,0,0,0,.983-2.818c.83-3.383,2.033-6.586,2.475-10.066a1.168,1.168,0,0,0-.067-.6,11.293,11.293,0,0,0,3.678,1.716,15.5,15.5,0,0,0,3.3.133c1.729-.5,2-1.134.421-2.162a12.1,12.1,0,0,1-2.617-3.154,24.144,24.144,0,0,1-.92-2.533c.5-.292.39.015.91.3,2.123,2.968,6.22,3.846,9.558,4.672,2.68.666,8.571,1.252,9.326,4.59a1.127,1.127,0,0,0,.744.867,20.41,20.41,0,0,1,.52,2.71,1.353,1.353,0,0,0,.123.419c.019.172.041.344.064.516C282.182,363.519,284.8,363.541,284.6,361.867Z" transform="translate(-59.972 -4.016)" fill="#c79f65"/>
    <path id="パス_559" data-name="パス 559" d="M269.74,448.469c1.527-.08,2.234.906,2.691,2.1.392,1.025.644,2.1.955,3.16.085.289.162.58.29,1.042a17.286,17.286,0,0,0,.913-2.837,11.3,11.3,0,0,1-2.6-8.154,20.909,20.909,0,0,1-7.838-.958,20.142,20.142,0,0,1-6.845-3.841c-.072.8-.125,1.479-.2,2.157-.206,1.961-.414,3.921-.633,5.88a10.992,10.992,0,0,1-2.912,6.231,2.137,2.137,0,0,1-.525.439.712.712,0,0,1-.912-.15.721.721,0,0,1-.114-.919,1.473,1.473,0,0,1,.285-.359,9.657,9.657,0,0,0,2.951-6.334c.037-.324.078-.648.124-1.029-.989-.106-1.933-.166-2.862-.316a35.193,35.193,0,0,1-3.609-.717,7.316,7.316,0,0,1-3.064-1.993,12.866,12.866,0,0,1-3.372-5.243,47.217,47.217,0,0,1-1.842-8.072c-.319-2.136-.352-4.286-.526-6.428a17.029,17.029,0,0,1,.068-2.456,31.042,31.042,0,0,1,.768-6.7,12.821,12.821,0,0,1,2.907-5.681,5.627,5.627,0,0,1,2.38-1.492c.561-.176,1,0,1.144.442a.787.787,0,0,1-.585,1.014,6.032,6.032,0,0,0-3.583,3.767,18.073,18.073,0,0,0-1.451,6.642c-.03.9-.161,1.789-.173,2.684a44.682,44.682,0,0,0,.517,7.963c.3,1.791.61,3.586,1.045,5.347a20.943,20.943,0,0,0,1.339,3.915,9.811,9.811,0,0,0,4.215,4.55,9.442,9.442,0,0,0,2.476.77,25.017,25.017,0,0,0,4.328.449c.046-.418.112-.791.125-1.165.047-1.33.1-2.66.1-3.99a1.519,1.519,0,0,1,1.289-1.521,1.362,1.362,0,0,1,.8.363c.366.315.648.726,1.008,1.05a9.665,9.665,0,0,0,1.378,1.093,18.858,18.858,0,0,0,10.7,3.045,12.236,12.236,0,0,0,7-2.2,9.77,9.77,0,0,0,3.38-4.2,14.822,14.822,0,0,0,1.274-3.771,17.542,17.542,0,0,0,.126-2.444,27.917,27.917,0,0,0-.186-3.22,24.012,24.012,0,0,0-1.222-5.537,9.976,9.976,0,0,1-.39-1.325,17.257,17.257,0,0,0-1.5-3.772,5.078,5.078,0,0,0-1.868-1.771c-.146-.1-.338-.131-.478-.236-2.166-1.621-4.76-2.209-7.264-3.008-1.657-.529-3.374-.9-4.984-1.542a12.23,12.23,0,0,1-4.415-3,1.489,1.489,0,0,1-.332-.59.693.693,0,0,1,.311-.8.735.735,0,0,1,.925.066.532.532,0,0,1,.108.108,8.436,8.436,0,0,0,3.379,2.6,17.978,17.978,0,0,0,2.822.976c1.854.581,3.718,1.132,5.572,1.713.757.237,1.5.52,2.247.785a4.479,4.479,0,0,1,.642.253,14.473,14.473,0,0,1,4.1,2.784,2.962,2.962,0,0,1,.586.8,30.992,30.992,0,0,1,1.915,5.259c.127.6.4,1.164.547,1.759a27.517,27.517,0,0,1,.968,6.439c.005.486.068.97.11,1.456a10.063,10.063,0,0,1-.591,4.152c-.207.606-.435,1.2-.661,1.8a11.979,11.979,0,0,1-8.558,7.584c-.173.048-.348.089-.52.137a1.447,1.447,0,0,0-.18.083,1.323,1.323,0,0,1-.008.493,5.281,5.281,0,0,0,.128,3.6,10.108,10.108,0,0,0,1.251,2.652c.121-.251.21-.415.28-.588a14.742,14.742,0,0,1,1.732-3.159c.762-1.052,1.205-1.152,2.335-.474.248-.277.491-.571.757-.841a1.607,1.607,0,0,1,2.217-.3.884.884,0,0,0,.548.149c1.018-.25,2.177,1.123,1.952,2.125-.128.569-.17,1.157-.253,1.749a2.91,2.91,0,0,1,1.171,2.8c-.06.837-.062,1.677-.092,2.583a13.713,13.713,0,0,1,3.707,1.884,12.106,12.106,0,0,1,5.338,6.43c.554,1.4,1.126,2.809,1.548,4.255a43.189,43.189,0,0,1,1.685,8.343c.1,1.173.228,2.344.332,3.516a3.213,3.213,0,0,1-.012.764.7.7,0,0,1-.6.62.736.736,0,0,1-.837-.4,1.482,1.482,0,0,1-.163-.582c-.064-.892-.056-1.793-.169-2.678-.236-1.851-.467-3.708-.825-5.538a38.7,38.7,0,0,0-1.192-4.528,24.241,24.241,0,0,0-2.475-5.6,9.725,9.725,0,0,0-2.839-2.878c-.872-.584-1.782-1.113-2.691-1.637a10.089,10.089,0,0,0-1.166-.482c-.116.72-.233,1.335-.312,1.954-.4,3.124-.8,6.247-1.175,9.375s-.7,6.259-1.052,9.389a5.982,5.982,0,0,1-.195,1.055.819.819,0,0,1-.98.653.828.828,0,0,1-.584-1.019c.354-2.767.7-5.536,1.062-8.3.368-2.793.756-5.583,1.138-8.375.32-2.333.672-4.663.951-7a16.906,16.906,0,0,0,.014-2.533A1.823,1.823,0,0,0,284,450.4c-.5.122-.557.492-.629.832-.38,1.8-.7,3.62-1.138,5.409-.339,1.389-.808,2.746-1.236,4.112a15.6,15.6,0,0,1-.577,1.585,7.923,7.923,0,0,1-.723,1.346.733.733,0,0,1-1.074.229.782.782,0,0,1-.21-1.028c.641-1.56,1.3-3.114,1.9-4.69a12.652,12.652,0,0,0,.516-2c.374-1.857.741-3.715,1.07-5.58a3.646,3.646,0,0,1,.918-1.471,1.685,1.685,0,0,0,.393-1.087c0-.177.018-.354.031-.567a1.231,1.231,0,0,0-1.14.952c-.12.444-.294.873-.412,1.318-.814,3.068-1.631,6.136-2.422,9.211-.21.816-.326,1.658-.491,2.486a2.357,2.357,0,0,1-.162.585.678.678,0,0,1-.77.376.69.69,0,0,1-.612-.6,1.491,1.491,0,0,1,.005-.534c.161-.829.3-1.665.514-2.482.85-3.244,1.706-6.486,2.6-9.718.257-.927.652-1.816.958-2.652a2.728,2.728,0,0,0-1.015,1.382,6.981,6.981,0,0,1-.4.8,11.616,11.616,0,0,0-.839,1.881c-.7,2.7-1.679,5.326-2.134,8.09-.079.479-.206.951-.326,1.422-.233.922-.237.921-1.156,1.167.11.543.187,1.1.338,1.637a37.186,37.186,0,0,1,1.469,10.081,14.7,14.7,0,0,0,.1,1.533,7.839,7.839,0,0,1-1.36,4.717.751.751,0,0,1-1.042.367.767.767,0,0,1-.305-1.064c.184-.422.418-.822.626-1.233a5.381,5.381,0,0,0,.588-2.9c-.138-1.865-.163-3.739-.357-5.6a26.614,26.614,0,0,0-.73-3.764c-1-3.945-2.05-7.879-3.092-11.814-.17-.643-.386-1.274-.607-1.9a2.137,2.137,0,0,0-.994-1.2,11.2,11.2,0,0,0,0,1.3c.185,1.473.43,2.939.593,4.415a31.3,31.3,0,0,0,.8,4.221,24.941,24.941,0,0,1,.439,2.649.8.8,0,0,1-.653.969.824.824,0,0,1-.87-.7,1.442,1.442,0,0,1-.053-.379,17.438,17.438,0,0,0-.5-3.413c-.285-1.561-.492-3.136-.748-4.7-.162-.985-.372-1.962-.525-2.948-.114-.73-.118-1.481-.27-2.2a7.475,7.475,0,0,0-.6-1.572,2.578,2.578,0,0,0-.511-.557,1.935,1.935,0,0,0-.392,1.453c.085,1.559.16,3.121.334,4.671a71.71,71.71,0,0,0,1.713,9.676,1.911,1.911,0,0,1,.052.224.8.8,0,0,1-.6,1,.775.775,0,0,1-.912-.719c-.161-.8-.308-1.61-.43-2.42-.494-3.266-1-6.532-1.451-9.8-.13-.935-.114-1.891-.154-2.837a1.347,1.347,0,0,0-.569-1.237c-.056.253-.118.469-.151.691a21.212,21.212,0,0,0,.039,5.592,87.094,87.094,0,0,0,1.6,9.308,1.888,1.888,0,0,1,.05.457.707.707,0,0,1-.57.726.692.692,0,0,1-.826-.405,1.9,1.9,0,0,1-.165-.585q-.827-5.663-1.637-11.329c-.075-.53-.046-1.074-.073-1.611a.83.83,0,0,0-.186-.515,2.4,2.4,0,0,0-.129.444,25.579,25.579,0,0,0,.092,5.442c.335,2.777.916,5.5,1.525,8.227.155.7.177,1.422.27,2.132.07.532.138,1.066.241,1.592.084.431.241.862-.159,1.216-.366.325-.743.149-1.2-.134.109.4.176.667.253.931q1.282,4.387,2.565,8.773a1.934,1.934,0,0,1,.079.3.8.8,0,0,1-.479.874.731.731,0,0,1-.934-.314,3.926,3.926,0,0,1-.36-.924c-.729-2.614-1.44-5.232-2.174-7.845-.152-.54-.379-1.059-.563-1.591-.343-.991-.687-1.981-1.017-2.976-.282-.85-.53-1.712-.821-2.559a5.742,5.742,0,0,1-.327-2.035c.019-.778.127-1.493.971-1.817-1.235-.35-2.452-.615-3.609-1.041a64.346,64.346,0,0,1-7.034-3.061c-.531-.271-.716-.688-.513-1.112a.816.816,0,0,1,1.249-.284,45.228,45.228,0,0,0,4.943,2.29,18.58,18.58,0,0,0,4.961,1.574c.228.034.458.052.688.065a2.582,2.582,0,0,0,.361-.037c-.078-.664-.128-1.3-.232-1.919a30.431,30.431,0,0,1-.255-5.6,6.644,6.644,0,0,1,.151-1.218c.217-1.047.636-1.353,1.744-1.3.081-.39.14-.793.25-1.18a1.281,1.281,0,0,1,2.13-.794c.149.1.282.219.415.323a2.187,2.187,0,0,1,3.213,1.243C269.366,447.582,269.549,448.032,269.74,448.469Zm8.7-1.023a2.094,2.094,0,0,0-.31.339c-.471.846-1,1.669-1.381,2.554a46.35,46.35,0,0,0-1.8,6.018c-.108.387-.28.756-.408,1.138a.83.83,0,0,0-.063.433c.145.55.321,1.091.486,1.635l.186.007a77.945,77.945,0,0,1,3.428-11.885C278.592,447.646,278.51,447.567,278.438,447.446Zm-17.107,13.4a2.4,2.4,0,0,0,.05,1.422c.376,1.3.732,2.6,1.136,3.89.194.619.481,1.209.726,1.812a4.234,4.234,0,0,0-.024-1.322c-.152-1.239-.336-2.476-.443-3.719a3.356,3.356,0,0,0-1.206-2.033C261.529,460.854,261.433,460.866,261.331,460.846Z" transform="translate(-59.336 -62.02)" fill-rule="evenodd"/>
    <path id="パス_560" data-name="パス 560" d="M336.129,355.811c0,.639.018,1.279-.006,1.917a.765.765,0,0,1-1.529.061,10.681,10.681,0,0,1,0-1.151c.006-.46,0-.921.023-1.38.1-2.177-.785-4.1-1.559-6.044a19.74,19.74,0,0,0-4.238-5.98c-.4-.432-.85-.817-1.258-1.242a18.9,18.9,0,0,0-6.391-4.163c-1.385-.594-2.8-1.127-4.2-1.688a13.079,13.079,0,0,0-6.265-.742,14.3,14.3,0,0,0-3.859.955,12.685,12.685,0,0,0-6.709,6.338c-.339.658-.69.894-1.15.657a.891.891,0,0,1-.253-1.338,15.015,15.015,0,0,1,8.115-7.249,17.42,17.42,0,0,1,6.881-.91,12.97,12.97,0,0,1,3.507.785c1.879.663,3.729,1.424,5.545,2.247a19.557,19.557,0,0,1,6.144,4.271,42.508,42.508,0,0,1,3.536,3.941,13.409,13.409,0,0,1,2.1,3.816c.176.534.378,1.062.591,1.582A12.005,12.005,0,0,1,336.129,355.811Z" transform="translate(-110.536)" fill-rule="evenodd"/>
    <path id="パス_561" data-name="パス 561" d="M172.29,825.727c.253-2.344.491-4.764.784-7.178a43.029,43.029,0,0,1,.676-4.322,20.349,20.349,0,0,1,4.539-9.025,3.039,3.039,0,0,1,.491-.486,20.366,20.366,0,0,1,5.43-3.131c.948-.312,1.89-.637,2.84-.941a4.126,4.126,0,0,1,.968-.217.832.832,0,0,1,.932.722c.039.407-.228.705-.725.841-.887.243-1.771.5-2.657.746a16.548,16.548,0,0,0-4.061,1.959,12.63,12.63,0,0,0-4.606,5.312,21.9,21.9,0,0,0-2.22,7.854c-.246,2.239-.507,4.476-.731,6.717-.068.685-.028,1.381-.048,2.072a2.589,2.589,0,0,1-.081.68.708.708,0,0,1-.754.534.691.691,0,0,1-.7-.607C172.308,826.779,172.316,826.29,172.29,825.727Z" transform="translate(0 -408.47)" fill-rule="evenodd"/>
    <path id="パス_562" data-name="パス 562" d="M476.162,598.558c-.186,1.578-.3,3.012-.539,4.423a3.207,3.207,0,0,1-1.806,2.267,1.927,1.927,0,0,1-1.708.1,4.113,4.113,0,0,1-.7-.308,14.665,14.665,0,0,1-4.239-3.84c-.372-.551-.733-1.112-1.051-1.695a1.068,1.068,0,0,1,.184-1.517c.252-1.022,1.148-1.172,1.952-1.492,1.474-.587,2.921-1.244,4.387-1.85a15.078,15.078,0,0,1,1.667-.576c.751-.212,1.205.036,1.345.826C475.873,596.156,476.008,597.429,476.162,598.558Zm-1.921-2.817c-.332.1-.631.162-.909.276q-2.59,1.062-5.168,2.149a4.629,4.629,0,0,0-.684.445,11.425,11.425,0,0,0,4.739,5.078.917.917,0,0,0,.43.15,1.108,1.108,0,0,0,.583-.1,1.64,1.64,0,0,0,.878-1.114c.189-1.469.384-2.943.44-4.421A6.513,6.513,0,0,0,474.241,595.74Z" transform="translate(-257.015 -227.764)" fill-rule="evenodd"/>
    <path id="パス_563" data-name="パス 563" d="M300.907,605.426a5.917,5.917,0,0,1-5.633-3.911,4.164,4.164,0,0,1,.913-4.344.52.52,0,0,1,.172-.152c1.227-.591,2.468-1.046,3.791-.275a7.746,7.746,0,0,1,.962.632.793.793,0,0,1,.195,1.15.779.779,0,0,1-1.1.115,1.278,1.278,0,0,1-.246-.183,1.979,1.979,0,0,0-2.483-.249,1.872,1.872,0,0,0-.918,1.511,2.526,2.526,0,0,0,.118,1.2,4.4,4.4,0,0,0,5.06,2.909c.177-.026.35-.085.528-.1a.772.772,0,0,1,.875.576.759.759,0,0,1-.523.911,9.306,9.306,0,0,1-1.36.2A2.59,2.59,0,0,1,300.907,605.426Z" transform="translate(-107.411 -229.809)" fill-rule="evenodd"/>
    <path id="パス_564" data-name="パス 564" d="M360.207,433.755c-.981-.169-1.974-.288-2.94-.519a6.363,6.363,0,0,1-3.116-1.724c-.431-.438-.894-.844-1.306-1.3a6.025,6.025,0,0,1-.759-1.052,1.541,1.541,0,0,1-.168-.731.776.776,0,0,1,.691-.79.807.807,0,0,1,.814.572,6.576,6.576,0,0,0,4.5,3.686,8.651,8.651,0,0,0,2.89.236.791.791,0,0,1,.954.678c.054.465-.269.8-.861.859a6.627,6.627,0,0,1-.69,0Z" transform="translate(-157.248 -82.129)" fill-rule="evenodd"/>
    <path id="パス_565" data-name="パス 565" d="M424.455,541.892a2.909,2.909,0,0,1-.065.6.59.59,0,0,1-.627.463,1.063,1.063,0,0,1-.7-.343,2.182,2.182,0,0,1-.287-1.007,2.687,2.687,0,0,1,1.491-2.228,2.293,2.293,0,0,1,2.646.587,3.506,3.506,0,0,1,.537.738.715.715,0,0,1-.155.909.757.757,0,0,1-.985.009,2.846,2.846,0,0,1-.429-.433.843.843,0,0,0-1.013-.321C424.516,541,424.373,541.342,424.455,541.892Z" transform="translate(-219.274 -179.792)" fill-rule="evenodd"/>
    <path id="パス_566" data-name="パス 566" d="M511.971,506.772a2.133,2.133,0,0,1,1.831,1.861.74.74,0,0,1-.549.747.721.721,0,0,1-.813-.285c-.062-.079-.1-.178-.156-.263-.334-.5-.749-.5-1.028.044a4.046,4.046,0,0,0-.231.88.769.769,0,0,1-.808.667.8.8,0,0,1-.735-.758A2.771,2.771,0,0,1,511.971,506.772Z" transform="translate(-295.165 -151.405)" fill-rule="evenodd"/>
    <path id="パス_567" data-name="パス 567" d="M650.056,590.946a5.339,5.339,0,0,1-.287.631,26.8,26.8,0,0,0-2.211,3.753.759.759,0,0,1-1.068.438.77.77,0,0,1-.24-1.127q1.043-1.914,2.111-3.813a1.075,1.075,0,0,1,.449-.5,1.091,1.091,0,0,1,.786,0C649.8,590.436,649.913,590.741,650.056,590.946Z" transform="translate(-414.785 -224.489)" fill-rule="evenodd"/>
    <path id="パス_568" data-name="パス 568" d="M385.626,502.457a3.759,3.759,0,0,1,2.608-3.429,2.185,2.185,0,0,1,1.049.061.736.736,0,0,1,.515.842.747.747,0,0,1-.752.634,1.7,1.7,0,0,0-1.8,1.691c-.019.152-.016.309-.047.458a.8.8,0,0,1-.773.717.848.848,0,0,1-.775-.732A2.092,2.092,0,0,1,385.626,502.457Z" transform="translate(-186.755 -144.591)" fill-rule="evenodd"/>
    <path id="パス_569" data-name="パス 569" d="M693.971,779.965a12.092,12.092,0,0,1-1.136-.434,6.125,6.125,0,0,0-2.617-.786.785.785,0,0,1-.79-.857.836.836,0,0,1,.974-.757,7.769,7.769,0,0,1,1.485.366c.866.306,1.718.655,2.569,1a.761.761,0,0,1,.525.839C694.915,779.714,694.57,779.972,693.971,779.965Z" transform="translate(-452.703 -388.07)" fill-rule="evenodd"/>
    <path id="パス_570" data-name="パス 570" d="M680.285,685.651a.837.837,0,0,1-.785-.487.731.731,0,0,1,.161-.912,2.517,2.517,0,0,1,.791-.437c.885-.322,1.781-.61,2.671-.919.489-.169.871-.058,1.051.32a.712.712,0,0,1-.361.97,16.567,16.567,0,0,1-1.533.682c-.536.229-1.073.456-1.613.675A2.976,2.976,0,0,1,680.285,685.651Z" transform="translate(-443.935 -305.518)" fill-rule="evenodd"/>
    <path id="パス_571" data-name="パス 571" d="M503.081,568.085c.561.009.85.2.941.552a.748.748,0,0,1-.509.912,2.655,2.655,0,0,1-.663.185.787.787,0,0,1-.886-.569.753.753,0,0,1,.492-.922A3.894,3.894,0,0,1,503.081,568.085Z" transform="translate(-288.572 -205.079)" fill-rule="evenodd"/>
  </g>
</svg>
