<svg xmlns="http://www.w3.org/2000/svg" width="123.028" height="150.411" viewBox="0 0 123.028 150.411">
  <g id="グループ_420" data-name="グループ 420" transform="translate(-172.29 -333.817)">
    <path id="パス_558" data-name="パス 558" d="M317.783,379.641c-.716-5.972-1.334-14.459-5.584-19.42a1.944,1.944,0,0,0-.315-1.781c-1.925-2.759-3.278-6.024-6.077-8.048a2.043,2.043,0,0,0-2.023-.131c-3.482-3.771-9.48-5.827-13.967-7.332-.112-.033-.21-.046-.315-.072-4.4-2.5-8.764-4.717-13.98-4.427-3.718.21-7.233,1.813-10.478,3.521-4.415,2.319-11.609,6.746-13.5,12.265-.092.04-.19.066-.289.118-12.265,6.366-10.872,22.586-9.743,34.188.867,8.842,3.081,18.178,7.732,25.858,3.666,6.057,9.934,7.785,16.641,7.305a.447.447,0,0,0,.1-.019A2.286,2.286,0,0,0,268.433,420c.309-1.537.67-3.061.985-4.6a2.433,2.433,0,0,0-.9-2.483c.1-.907.21-1.813.322-2.727.243-1.918-2.083-2.608-3.462-1.984-6.977,3.16-16.818-8.074-8.185-12.127a2.107,2.107,0,0,0,.46-.283,2.528,2.528,0,0,0,3.1.972c1.616.611,3.81-.571,3.081-2.628a14.53,14.53,0,0,1-.742-4.993,50.85,50.85,0,0,0,1.728-4.953c1.458-5.945,3.574-11.576,4.349-17.692a2.052,2.052,0,0,0-.118-1.051,19.846,19.846,0,0,0,6.465,3.016,27.244,27.244,0,0,0,5.807.234c3.038-.884,3.521-1.993.739-3.8-.217-.145-3.478-3.1-4.6-5.543-1.027-1.889-1.321-4.1-1.616-4.452.887-.512.686.027,1.6.526,3.731,5.216,10.932,6.76,16.8,8.212,4.71,1.17,15.064,2.2,16.391,8.068a1.981,1.981,0,0,0,1.308,1.524,35.861,35.861,0,0,1,.913,4.763,2.376,2.376,0,0,0,.217.736c.033.3.072.6.112.907C313.532,382.545,318.138,382.584,317.783,379.641Z" transform="translate(-53.506 -3.583)" fill="#c79f65"/>
    <path id="パス_559" data-name="パス 559" d="M292.216,481.653c2.683-.141,3.926,1.593,4.73,3.7.689,1.8,1.131,3.7,1.678,5.553.15.508.284,1.019.51,1.831a30.383,30.383,0,0,0,1.6-4.986,19.857,19.857,0,0,1-4.574-14.331c-4.739.092-9.385-.043-13.775-1.684-4.281-1.6-8.456-3.472-12.03-6.751-.127,1.4-.22,2.6-.345,3.791-.363,3.446-.727,6.892-1.112,10.335a19.32,19.32,0,0,1-5.119,10.951,3.756,3.756,0,0,1-.922.772,1.251,1.251,0,0,1-1.6-.263,1.268,1.268,0,0,1-.2-1.614,2.589,2.589,0,0,1,.5-.631c3.266-3,4.7-6.842,5.186-11.131.065-.57.137-1.138.218-1.809-1.739-.186-3.4-.293-5.029-.556a61.853,61.853,0,0,1-6.342-1.26,12.857,12.857,0,0,1-5.386-3.5,22.613,22.613,0,0,1-5.927-9.214,82.985,82.985,0,0,1-3.238-14.186c-.561-3.753-.619-7.533-.925-11.3a29.929,29.929,0,0,1,.12-4.316c.254-3.947.239-7.921,1.35-11.779,1.057-3.67,2.367-7.174,5.109-9.985a9.89,9.89,0,0,1,4.183-2.622c.987-.309,1.755,0,2.01.777a1.383,1.383,0,0,1-1.027,1.783c-3.3,1.08-5.012,3.659-6.3,6.62a31.764,31.764,0,0,0-2.551,11.673c-.053,1.574-.282,3.144-.3,4.717a78.534,78.534,0,0,0,.909,13.995c.522,3.148,1.071,6.3,1.837,9.4a36.81,36.81,0,0,0,2.354,6.881,17.243,17.243,0,0,0,7.408,8,16.6,16.6,0,0,0,4.351,1.354,43.971,43.971,0,0,0,7.606.789c.082-.734.2-1.39.22-2.048.083-2.337.17-4.674.184-7.013a2.67,2.67,0,0,1,2.265-2.674,2.393,2.393,0,0,1,1.4.638c.643.554,1.139,1.276,1.771,1.846a16.984,16.984,0,0,0,2.422,1.92,33.144,33.144,0,0,0,18.808,5.352,21.506,21.506,0,0,0,12.3-3.872,17.172,17.172,0,0,0,5.941-7.376,26.052,26.052,0,0,0,2.239-6.628,30.823,30.823,0,0,0,.221-4.3,49.06,49.06,0,0,0-.327-5.659,42.2,42.2,0,0,0-2.147-9.731,17.53,17.53,0,0,1-.685-2.329,30.329,30.329,0,0,0-2.644-6.63,8.925,8.925,0,0,0-3.283-3.112c-.256-.174-.595-.231-.84-.415-3.807-2.85-8.366-3.883-12.767-5.287-2.913-.929-5.93-1.582-8.759-2.711a21.494,21.494,0,0,1-7.76-5.27,2.617,2.617,0,0,1-.584-1.038,1.218,1.218,0,0,1,.547-1.414,1.291,1.291,0,0,1,1.626.116.937.937,0,0,1,.19.19c1.476,2.173,3.7,3.422,5.938,4.561a31.6,31.6,0,0,0,4.959,1.715c3.259,1.02,6.535,1.989,9.793,3.011,1.33.417,2.635.914,3.949,1.38a7.876,7.876,0,0,1,1.129.444c2.566,1.386,5.2,2.681,7.2,4.893a5.2,5.2,0,0,1,1.031,1.4,54.472,54.472,0,0,1,3.365,9.242c.224,1.051.7,2.046.961,3.091a48.365,48.365,0,0,1,1.7,11.317c.009.853.12,1.706.193,2.558a17.685,17.685,0,0,1-1.038,7.3c-.364,1.065-.764,2.117-1.162,3.169-2.678,7.077-7.848,11.346-15.041,13.329-.3.084-.611.156-.914.241a2.545,2.545,0,0,0-.316.145,2.326,2.326,0,0,1-.015.866c-.907,2.151-.352,4.256.226,6.333a17.767,17.767,0,0,0,2.2,4.66c.212-.441.37-.73.492-1.033a25.908,25.908,0,0,1,3.044-5.553c1.339-1.848,2.118-2.024,4.1-.833.437-.487.862-1,1.331-1.478a2.824,2.824,0,0,1,3.9-.533,1.554,1.554,0,0,0,.963.262c1.79-.44,3.826,1.973,3.43,3.734-.224,1-.3,2.033-.444,3.074a5.114,5.114,0,0,1,2.057,4.917c-.105,1.47-.109,2.948-.162,4.539,2.425.51,4.367,2.108,6.516,3.311a21.277,21.277,0,0,1,9.381,11.3c.974,2.467,1.979,4.937,2.721,7.478a75.905,75.905,0,0,1,2.962,14.664c.18,2.061.4,4.119.583,6.18a5.646,5.646,0,0,1-.021,1.343,1.232,1.232,0,0,1-1.054,1.089,1.294,1.294,0,0,1-1.471-.7,2.605,2.605,0,0,1-.286-1.022c-.113-1.568-.1-3.151-.3-4.708-.416-3.254-.821-6.517-1.45-9.734a68.023,68.023,0,0,0-2.1-7.958,42.606,42.606,0,0,0-4.351-9.848,17.092,17.092,0,0,0-4.989-5.058c-1.532-1.026-3.131-1.956-4.729-2.878a17.738,17.738,0,0,0-2.049-.847c-.2,1.265-.409,2.346-.548,3.435-.7,5.491-1.415,10.98-2.065,16.476s-1.227,11-1.848,16.5a10.506,10.506,0,0,1-.342,1.855,1.44,1.44,0,0,1-1.723,1.148,1.454,1.454,0,0,1-1.026-1.791c.623-4.864,1.226-9.73,1.867-14.592.648-4.909,1.329-9.813,2-14.719.562-4.1,1.182-8.2,1.671-12.3a29.714,29.714,0,0,0,.025-4.451,3.2,3.2,0,0,0-.482-1.07c-.875.214-.978.864-1.1,1.462-.667,3.169-1.234,6.362-2,9.506-.6,2.44-1.421,4.826-2.171,7.227a27.426,27.426,0,0,1-1.014,2.785,13.925,13.925,0,0,1-1.271,2.366,1.288,1.288,0,0,1-1.888.4,1.375,1.375,0,0,1-.369-1.807c1.127-2.741,2.284-5.472,3.337-8.242a22.229,22.229,0,0,0,.907-3.516c.657-3.264,1.3-6.529,1.881-9.807a6.407,6.407,0,0,1,1.614-2.585,2.961,2.961,0,0,0,.691-1.911c-.007-.311.032-.622.054-1a2.164,2.164,0,0,0-2,1.673c-.211.78-.517,1.535-.724,2.316-1.431,5.393-2.867,10.785-4.256,16.189-.369,1.435-.573,2.913-.863,4.369a4.144,4.144,0,0,1-.284,1.029,1.192,1.192,0,0,1-1.354.66,1.214,1.214,0,0,1-1.077-1.057,2.621,2.621,0,0,1,.009-.938c.283-1.458.529-2.927.9-4.361,1.493-5.7,3-11.4,4.571-17.079.451-1.63,1.145-3.191,1.683-4.662a4.8,4.8,0,0,0-1.784,2.429,12.275,12.275,0,0,1-.695,1.4,20.417,20.417,0,0,0-1.474,3.306c-1.234,4.745-2.952,9.361-3.751,14.219-.138.842-.363,1.671-.572,2.5-.409,1.621-.416,1.619-2.031,2.052.193.955.328,1.934.594,2.877a65.355,65.355,0,0,1,2.582,17.718,25.846,25.846,0,0,0,.183,2.7c.326,3.09-.943,5.721-2.39,8.29a1.321,1.321,0,0,1-1.831.644,1.347,1.347,0,0,1-.537-1.87c.323-.742.734-1.444,1.1-2.167a9.457,9.457,0,0,0,1.034-5.09c-.242-3.277-.286-6.571-.628-9.837a46.773,46.773,0,0,0-1.284-6.616c-1.765-6.933-3.6-13.848-5.433-20.764-.3-1.129-.678-2.24-1.067-3.343a3.755,3.755,0,0,0-1.746-2.116,19.681,19.681,0,0,0,.007,2.293c.324,2.589.757,5.166,1.042,7.759a55,55,0,0,0,1.407,7.419,43.838,43.838,0,0,1,.772,4.656,1.4,1.4,0,0,1-1.148,1.7A1.447,1.447,0,0,1,293.374,507a2.532,2.532,0,0,1-.094-.666,30.648,30.648,0,0,0-.874-6c-.5-2.743-.865-5.511-1.315-8.264-.284-1.731-.654-3.448-.923-5.181-.2-1.283-.207-2.6-.474-3.869a13.136,13.136,0,0,0-1.05-2.763,4.532,4.532,0,0,0-.9-.978,3.4,3.4,0,0,0-.69,2.553c.149,2.74.281,5.485.588,8.209a126.033,126.033,0,0,0,3.011,17.006,3.357,3.357,0,0,1,.091.394,1.411,1.411,0,0,1-1.062,1.757,1.362,1.362,0,0,1-1.6-1.264c-.283-1.411-.541-2.83-.756-4.253-.868-5.74-1.751-11.48-2.55-17.229-.228-1.643-.2-3.323-.271-4.987a2.367,2.367,0,0,0-1-2.174c-.1.444-.208.825-.265,1.214a37.281,37.281,0,0,0,.068,9.827,153.051,153.051,0,0,0,2.81,16.36,3.319,3.319,0,0,1,.087.8,1.243,1.243,0,0,1-1,1.276,1.217,1.217,0,0,1-1.452-.713,3.342,3.342,0,0,1-.29-1.029q-1.454-9.953-2.878-19.911c-.132-.932-.081-1.887-.127-2.832a1.46,1.46,0,0,0-.328-.905,4.221,4.221,0,0,0-.227.78,44.957,44.957,0,0,0,.163,9.565c.589,4.881,1.61,9.672,2.68,14.46.273,1.224.311,2.5.475,3.748.123.935.242,1.873.423,2.8.148.758.423,1.516-.279,2.137-.644.57-1.307.263-2.108-.235.191.7.309,1.173.445,1.637q2.252,7.71,4.509,15.419a3.388,3.388,0,0,1,.138.521,1.412,1.412,0,0,1-.843,1.536,1.284,1.284,0,0,1-1.642-.553,6.9,6.9,0,0,1-.634-1.624c-1.28-4.594-2.531-9.2-3.821-13.787-.266-.95-.666-1.861-.99-2.8-.6-1.741-1.207-3.481-1.787-5.23-.5-1.494-.932-3.008-1.444-4.5a10.093,10.093,0,0,1-.575-3.576c.033-1.368.223-2.624,1.707-3.193-2.17-.616-4.309-1.081-6.344-1.83a113.089,113.089,0,0,1-12.362-5.38c-.933-.476-1.258-1.209-.9-1.955a1.434,1.434,0,0,1,2.2-.5,79.49,79.49,0,0,0,8.687,4.025,32.656,32.656,0,0,0,8.72,2.766c.4.06.805.091,1.209.115a4.529,4.529,0,0,0,.635-.065c-.138-1.166-.224-2.277-.407-3.372a53.482,53.482,0,0,1-.448-9.838,11.679,11.679,0,0,1,.265-2.141c.381-1.84,1.118-2.378,3.066-2.277.143-.685.245-1.393.439-2.074.55-1.937,2.067-2.494,3.744-1.4.261.172.495.385.73.568,2.681-1.071,4.417-.4,5.646,2.184C291.558,480.094,291.88,480.885,292.216,481.653Zm15.286-1.8a3.678,3.678,0,0,0-.546.6c-.828,1.486-1.755,2.934-2.428,4.49-1.469,3.394-2.17,7.032-3.163,10.577-.19.68-.493,1.328-.718,2a1.46,1.46,0,0,0-.11.761c.254.967.564,1.918.853,2.874l.327.012a137,137,0,0,1,6.025-20.889C307.773,480.206,307.629,480.067,307.5,479.854Zm-30.067,23.551a4.227,4.227,0,0,0,.088,2.5c.661,2.281,1.286,4.573,2,6.838.341,1.088.845,2.125,1.275,3.185a7.444,7.444,0,0,0-.042-2.323c-.268-2.178-.591-4.351-.779-6.536-.136-1.573-1.138-2.549-2.119-3.573C277.785,503.42,277.616,503.441,277.436,503.406Z" transform="translate(-52.938 -55.333)" fill-rule="evenodd"/>
    <path id="パス_560" data-name="パス 560" d="M364.591,372.472c0,1.123.032,2.248-.011,3.369a1.345,1.345,0,0,1-2.687.107,18.769,18.769,0,0,1,.007-2.022c.011-.809,0-1.618.041-2.425.183-3.825-1.379-7.2-2.74-10.623-1.63-4.105-4.506-7.334-7.449-10.51-.7-.759-1.495-1.435-2.21-2.183a33.212,33.212,0,0,0-11.232-7.317c-2.434-1.045-4.916-1.981-7.376-2.967a22.986,22.986,0,0,0-11.012-1.3,25.138,25.138,0,0,0-6.782,1.679,22.294,22.294,0,0,0-11.792,11.139c-.595,1.156-1.213,1.571-2.021,1.155a1.566,1.566,0,0,1-.444-2.351c3.319-5.845,7.727-10.434,14.263-12.74a30.618,30.618,0,0,1,12.093-1.6,22.794,22.794,0,0,1,6.164,1.38c3.3,1.166,6.554,2.5,9.745,3.949a34.373,34.373,0,0,1,10.8,7.506,74.732,74.732,0,0,1,6.215,6.926,23.567,23.567,0,0,1,3.695,6.706c.309.939.664,1.866,1.039,2.781A21.1,21.1,0,0,1,364.591,372.472Z" transform="translate(-98.618)" fill-rule="evenodd"/>
    <path id="パス_561" data-name="パス 561" d="M172.29,844.894c.445-4.12.863-8.373,1.377-12.615a75.617,75.617,0,0,1,1.188-7.6,35.764,35.764,0,0,1,7.977-15.862,5.341,5.341,0,0,1,.863-.853c2.994-2.157,5.98-4.33,9.543-5.5,1.666-.548,3.322-1.12,4.992-1.654a7.25,7.25,0,0,1,1.7-.381,1.463,1.463,0,0,1,1.639,1.269c.068.715-.4,1.24-1.275,1.479-1.559.427-3.112.877-4.669,1.312a29.087,29.087,0,0,0-7.138,3.443c-3.737,2.256-6.122,5.544-8.095,9.336a38.483,38.483,0,0,0-3.9,13.8c-.432,3.935-.892,7.867-1.285,11.806-.12,1.2-.049,2.428-.085,3.642a4.551,4.551,0,0,1-.142,1.2,1.244,1.244,0,0,1-1.325.939,1.215,1.215,0,0,1-1.223-1.068C172.322,846.743,172.336,845.884,172.29,844.894Z" transform="translate(0 -364.428)" fill-rule="evenodd"/>
    <path id="パス_562" data-name="パス 562" d="M483.946,602.011c-.326,2.774-.52,5.294-.948,7.773a5.636,5.636,0,0,1-3.174,3.984,3.386,3.386,0,0,1-3,.178,7.228,7.228,0,0,1-1.235-.542,25.775,25.775,0,0,1-7.45-6.748c-.654-.968-1.288-1.955-1.847-2.979-.506-.927-.673-1.887.323-2.667.443-1.8,2.018-2.059,3.43-2.621,2.591-1.033,5.133-2.186,7.711-3.252a26.529,26.529,0,0,1,2.93-1.012c1.319-.372,2.118.064,2.364,1.452C483.438,597.79,483.676,600.027,483.946,602.011Zm-3.376-4.951c-.584.174-1.11.284-1.6.485q-4.551,1.866-9.084,3.778a8.143,8.143,0,0,0-1.2.782c1.788,4.047,4.8,6.728,8.328,8.925a1.612,1.612,0,0,0,.756.263,1.947,1.947,0,0,0,1.025-.172,2.883,2.883,0,0,0,1.544-1.957c.333-2.582.674-5.173.773-7.77A11.446,11.446,0,0,0,480.57,597.059Z" transform="translate(-229.303 -203.206)" fill-rule="evenodd"/>
    <path id="パス_563" data-name="パス 563" d="M305.39,612.312c-4.73.222-8.4-3.1-9.9-6.875-1.159-2.925-.17-5.351,1.6-7.634a.915.915,0,0,1,.3-.268c2.156-1.038,4.338-1.839,6.664-.483a13.614,13.614,0,0,1,1.69,1.11,1.4,1.4,0,0,1,.342,2.021,1.369,1.369,0,0,1-1.935.2,2.253,2.253,0,0,1-.432-.323c-1.336-1.34-2.861-1.167-4.363-.438a3.289,3.289,0,0,0-1.613,2.656,4.44,4.44,0,0,0,.208,2.112c1.278,3.537,4.476,5.753,8.893,5.113.311-.045.616-.15.927-.171a1.357,1.357,0,0,1,1.538,1.012,1.334,1.334,0,0,1-.92,1.6,16.378,16.378,0,0,1-2.391.359A4.558,4.558,0,0,1,305.39,612.312Z" transform="translate(-95.83 -205.03)" fill-rule="evenodd"/>
    <path id="パス_564" data-name="パス 564" d="M366.486,438.391c-1.724-.3-3.469-.507-5.167-.913a11.184,11.184,0,0,1-5.476-3.03c-.757-.769-1.572-1.483-2.3-2.282a10.589,10.589,0,0,1-1.333-1.849,2.708,2.708,0,0,1-.295-1.285,1.365,1.365,0,0,1,1.215-1.389,1.418,1.418,0,0,1,1.431,1,11.558,11.558,0,0,0,7.91,6.478,15.206,15.206,0,0,0,5.08.415,1.39,1.39,0,0,1,1.676,1.191c.095.817-.473,1.4-1.513,1.511a11.647,11.647,0,0,1-1.212.007C366.5,438.3,366.493,438.344,366.486,438.391Z" transform="translate(-140.293 -73.273)" fill-rule="evenodd"/>
    <path id="パス_565" data-name="パス 565" d="M425.729,543.933a5.11,5.11,0,0,1-.114,1.051,1.037,1.037,0,0,1-1.1.813,1.869,1.869,0,0,1-1.233-.6,3.835,3.835,0,0,1-.5-1.77,4.722,4.722,0,0,1,2.62-3.916,4.031,4.031,0,0,1,4.651,1.032,6.159,6.159,0,0,1,.944,1.3,1.256,1.256,0,0,1-.273,1.6,1.33,1.33,0,0,1-1.731.016,5,5,0,0,1-.754-.761,1.481,1.481,0,0,0-1.781-.564C425.837,542.367,425.585,542.966,425.729,543.933Z" transform="translate(-195.631 -160.406)" fill-rule="evenodd"/>
    <path id="パス_566" data-name="パス 566" d="M513.87,506.773a3.748,3.748,0,0,1,3.218,3.271,1.3,1.3,0,0,1-.966,1.313,1.267,1.267,0,0,1-1.429-.5c-.109-.139-.175-.314-.274-.462-.587-.88-1.316-.875-1.807.078a7.113,7.113,0,0,0-.406,1.548,1.352,1.352,0,0,1-1.42,1.173,1.413,1.413,0,0,1-1.292-1.331A4.871,4.871,0,0,1,513.87,506.773Z" transform="translate(-263.339 -135.08)" fill-rule="evenodd"/>
    <path id="パス_567" data-name="パス 567" d="M653.045,591.468a9.4,9.4,0,0,1-.5,1.109,47.107,47.107,0,0,0-3.886,6.6,1.333,1.333,0,0,1-1.876.769,1.354,1.354,0,0,1-.422-1.981q1.833-3.364,3.71-6.7a1.89,1.89,0,0,1,.789-.87,1.919,1.919,0,0,1,1.381,0C652.6,590.571,652.792,591.107,653.045,591.468Z" transform="translate(-370.062 -200.284)" fill-rule="evenodd"/>
    <path id="パス_568" data-name="パス 568" d="M385.626,505.085a6.607,6.607,0,0,1,4.583-6.027,3.842,3.842,0,0,1,1.843.108,1.293,1.293,0,0,1,.906,1.48,1.312,1.312,0,0,1-1.322,1.114c-2.006.188-2.908,1.036-3.157,2.972-.034.268-.028.542-.083.8a1.4,1.4,0,0,1-1.358,1.261,1.491,1.491,0,0,1-1.361-1.287A3.663,3.663,0,0,1,385.626,505.085Z" transform="translate(-166.619 -129.001)" fill-rule="evenodd"/>
    <path id="パス_569" data-name="パス 569" d="M697.415,782.119a21.285,21.285,0,0,1-2-.762,10.764,10.764,0,0,0-4.6-1.381,1.38,1.38,0,0,1-1.389-1.506,1.47,1.47,0,0,1,1.712-1.331,13.659,13.659,0,0,1,2.609.643c1.522.538,3.019,1.151,4.515,1.758a1.338,1.338,0,0,1,.923,1.474C699.074,781.678,698.466,782.131,697.415,782.119Z" transform="translate(-403.891 -346.227)" fill-rule="evenodd"/>
    <path id="パス_570" data-name="パス 570" d="M680.948,687.8a1.47,1.47,0,0,1-1.379-.856,1.285,1.285,0,0,1,.283-1.6,4.423,4.423,0,0,1,1.39-.768c1.555-.565,3.131-1.073,4.694-1.615.86-.3,1.53-.1,1.848.563a1.252,1.252,0,0,1-.635,1.7,29.083,29.083,0,0,1-2.7,1.2c-.942.4-1.887.8-2.836,1.186A5.226,5.226,0,0,1,680.948,687.8Z" transform="translate(-396.069 -272.576)" fill-rule="evenodd"/>
    <path id="パス_571" data-name="パス 571" d="M503.949,568.085c.987.015,1.495.356,1.654.971a1.315,1.315,0,0,1-.895,1.6,4.666,4.666,0,0,1-1.166.326,1.383,1.383,0,0,1-1.557-1,1.323,1.323,0,0,1,.865-1.62A6.851,6.851,0,0,1,503.949,568.085Z" transform="translate(-257.457 -182.966)" fill-rule="evenodd"/>
  </g>
</svg>
