<svg xmlns="http://www.w3.org/2000/svg" xmlns:xlink="http://www.w3.org/1999/xlink" width="383.24" height="96.422" viewBox="0 0 383.24 96.422">
  <defs>
    <clipPath id="clip-path">
      <rect id="長方形_194" data-name="長方形 194" width="383.24" height="96.422" transform="translate(0 -5.332)" fill="none"/>
    </clipPath>
  </defs>
  <g id="グループ_291" data-name="グループ 291" transform="translate(-240 -5772.544)">
    <g id="グループ_312" data-name="グループ 312" transform="translate(240 5782.876)">
      <g id="グループ_232" data-name="グループ 232" transform="translate(0 -5)" clip-path="url(#clip-path)">
        <path id="パス_169" data-name="パス 169" d="M199.794,75.23a5.508,5.508,0,0,1-.813-1.121,4.814,4.814,0,0,1-.227-1.467c-.261-2.772-2.519-4.978-4.994-6.252-5.079-2.614-11.1-2.267-16.81-2s-11.818.283-16.608-2.829C156.4,59,152.676,54.337,152.73,49.5q.044-3.963.088-7.926a9.857,9.857,0,0,0-.036-1.227c-.014-.122-.048-.265-.163-.31a.347.347,0,0,0-.289.067c-1.9,1.139-2.585,3.169-3.673,4.962-.579.954-1.263.674-2.258.563-.476-.053-3.514-.36-3.739.126.258-.557-.106-1.2-.216-1.752-.122-.612-.18-1.236-.335-1.846-.084-.328-1.038-2.433-.743-2.657a17.815,17.815,0,0,0-3.683,4.312,19.027,19.027,0,0,1-2.743,3.683,9.353,9.353,0,0,0-2.482,3.089c-.689,1.486-1.108,3.087-1.863,4.545a9.085,9.085,0,0,1-2.559,2.978,10.505,10.505,0,0,1-1.748,1.087,4.617,4.617,0,0,1-.841.39,5.9,5.9,0,0,1-1.271.023.576.576,0,0,0-.225.032.548.548,0,0,0-.141.1,4.425,4.425,0,0,0-.761.926,1.565,1.565,0,0,0-.184.389,1.9,1.9,0,0,0,.15,1.122,6.209,6.209,0,0,0,.68,1.123c.321.5.687.977,1.037,1.461a4.867,4.867,0,0,0,2.468,1.935c-.114.162-.228.325-.331.491A11.631,11.631,0,0,0,125.1,73.7a1.932,1.932,0,0,0,.383,1.271,2.025,2.025,0,0,0,2.824-.244,8,8,0,0,0,1.42-2.991,14.3,14.3,0,0,1,.814-3.045,6.771,6.771,0,0,1,1.054-1.5c.265-.3.525-.729.915-.859a14.909,14.909,0,0,1,2.027-.351c.664-.119,1.327-.241,1.99-.36.8-.144,1.6-.283,2.4-.406a42.325,42.325,0,0,0-1.706,8.305c-.021.3-.041.6-.049.907-.043,1.767.134,3.656-.754,5.185-1.207,2.079-3.875,2.692-6.243,3.106l-5.407.944c-1.911.334-4.977.342-5.92,2.33a1.532,1.532,0,0,0,.012,1.462,2.229,2.229,0,0,0,2.093.649c1.656-.1,2.964.5,4.7.253l1.663-.233a3.079,3.079,0,0,1,1.138-3.305,5.839,5.839,0,0,1,2.718-1.127l6.411-1.376a3.835,3.835,0,0,0,1.9-.745,4.222,4.222,0,0,0,.7-2.527l.024-.286c.289-3.487.539-6.5,3.039-9.467a1.076,1.076,0,1,1,1.646,1.387c-2.059,2.442-2.261,4.882-2.54,8.258l-.022.266a5.9,5.9,0,0,1-1.318,3.89,5.69,5.69,0,0,1-2.972,1.33l-6.411,1.376a4.156,4.156,0,0,0-1.763.652c-.173.15-.456.348-.521.58a1.551,1.551,0,0,0,1.261,1.824A2.68,2.68,0,0,0,131.3,89a8.9,8.9,0,0,0,.892-.076c.325-.011.656.02.981.022q1,.009,1.994-.028c1.33-.048,2.657-.15,3.981-.285,1.655-.169,3.3-.388,4.952-.619a60.65,60.65,0,0,1,6.293-.789c2.089-.07,4.14-.719,6.241-.526,2.656.244,5.2.848,7.892.9.635.012,1.27,0,1.9-.008a2.961,2.961,0,0,1-.035-2.6c1.033-2.188,3.79-1.958,5.612-1.807.453.038.893.066,1.2.07l2.519-.024,1.147-.011a5.743,5.743,0,0,1-2.668-3.42c-.615-2.438.734-4.7,2.048-6.636l1.809-2.665a1.076,1.076,0,0,1,1.781,1.209l-1.81,2.666c-1.1,1.616-2.138,3.326-1.741,4.9a3.966,3.966,0,0,0,2.339,2.445,7.973,7.973,0,0,0,1.56.449,7.57,7.57,0,0,1,2.532.9,1.076,1.076,0,0,1,.031,1.8,3.422,3.422,0,0,1-1.975.473q-2.517.02-5.033.045l-2.52.024c-.412,0-.9-.035-1.4-.077-.893-.074-2.571-.4-3.3.324-.984.969.52,2.086,1.445,2.219,2.654.381,5.347-.265,8.028-.184,2.443.074,4.945.745,7.289.052,1.409-.416-.95-1.831.725-2.421.72-.254,1.448-.446,2.153-.633.757-.2,1.471-.39,2.161-.645a5.462,5.462,0,0,0,2.937-2.195,2.251,2.251,0,0,0-.323-2.731,1.076,1.076,0,0,1,1.309-1.709,4.373,4.373,0,0,1,.9,5.472,7.284,7.284,0,0,1-4.079,3.182,11.766,11.766,0,0,1-3.222.9,2,2,0,0,0,1.25.805,9.225,9.225,0,0,0,1.6.417c2.8.38,7.18-1.6,8.931-3.545,1.118-1.242,1.38-2.893,1.816-4.507s-.626-3.585-1.649-4.907" transform="translate(-51.306 -12.526)" fill="#c08d4e"/>
        <path id="パス_170" data-name="パス 170" d="M77.061,17.647a1.329,1.329,0,0,0-.884-.477c-.933-.108-1.79.542-2.736.528a14.871,14.871,0,0,1-3.292-.477A9.014,9.014,0,0,1,67.483,16.2c-.669-.439-.7-1.165-.945-1.882-.269-.778-.425-1.475-.627-2.084a10.6,10.6,0,0,0-.674-6.043C64.445,4.078,62.34,2.182,61.712,0c-.969,1.209-1.783,6.491-1.654,9.256A11.246,11.246,0,0,0,57.9,9.28a8.673,8.673,0,0,0-1.892.433A30.765,30.765,0,0,0,53.345.992c-1.615,3.183-3.28,6.6-3.075,10.238,0,.035.007.07.01.1-1.117,2.394-1.081,5.572-1.466,8a9.587,9.587,0,0,1-2.968,5.927C44.169,26.8,43.41,29.188,41.9,30.936A30.428,30.428,0,0,0,39.079,34c-1,1.509-2.2,2.861-3.3,4.29a46.584,46.584,0,0,0-4.61,7.46A44.213,44.213,0,0,0,26.56,62.331c-.005.071,0,.141-.007.211a19.937,19.937,0,0,0-4.217,1.632,8.247,8.247,0,0,0-3.9,4.242,5.028,5.028,0,0,0,1.2,5.412A7.312,7.312,0,0,0,22.823,75.2a33.129,33.129,0,0,0,8.169.851,6.426,6.426,0,0,0,3.617-.873,8.534,8.534,0,0,1-5.938-1.9,6.031,6.031,0,0,1-2.045-5.722,4.573,4.573,0,0,1,.452-1.174,12.092,12.092,0,0,0,6.045,6.559A14.089,14.089,0,0,0,40,74.533a15.159,15.159,0,0,1,6.356-1.427c.732-.032,1.472-.006,2.188.021a10.374,10.374,0,0,0,4.3-.416,2.09,2.09,0,0,0,.825-.532.6.6,0,0,0,.164-.459c-.032-.13-.2-.355-.825-.686a4.976,4.976,0,0,0-1.426-.548,6.645,6.645,0,0,0-1.263-.034l-2.595.088a1.091,1.091,0,0,1-1-.6,1.075,1.075,0,0,1,.139-1.162,46.383,46.383,0,0,0,2.834-3.948l.1-.146a13.076,13.076,0,0,0,1.356-3.355c.138-.455.276-.905.424-1.337a15.932,15.932,0,0,0,1.2-5.541,4.684,4.684,0,0,0-2.254-4.1,5.545,5.545,0,0,0-3.02-.314,14.85,14.85,0,0,0-7.776,3.3,1.076,1.076,0,1,1-1.374-1.655A17.032,17.032,0,0,1,47.264,47.9a7.538,7.538,0,0,1,4.183.511,6.76,6.76,0,0,1,3.478,5.971,12.541,12.541,0,0,1-.464,3.582l.092-.081A62.469,62.469,0,0,1,55.634,66.6c.033.617.163,1.235.165,1.847l0,1.485a3.56,3.56,0,0,0,.271,1.658,2.463,2.463,0,0,0,.385.525,3.553,3.553,0,0,0,1.571,1.044,6.342,6.342,0,0,0,2.041.121,2.67,2.67,0,0,0,1.937-.7,1.968,1.968,0,0,0,.165-1.9c-.227-.626-.622-1.175-.89-1.784a10.861,10.861,0,0,1-.644-3.478c-.255-3.76-.787-7.452-1.162-11.2.469-.277.945-.543,1.438-.782a9.627,9.627,0,0,0,1.081-.622,22.159,22.159,0,0,0,.269,5.324,45.65,45.65,0,0,1,.947,8.518c-.021,1.376-.281,2.821.272,4.082a3.536,3.536,0,0,0,4.943,1.482c.769-.5,1.31-1.628.7-2.312a2.927,2.927,0,0,0-.7-.488c-2.321-1.416-1.591-4.173-1.552-6.413.072-4.133.093-8.269.385-12.394.146-2.059.357-4.115.679-6.155a39.217,39.217,0,0,0-.257-6.979q-.237-1.339-.473-2.677a4.961,4.961,0,0,1-.168-2.3,26.811,26.811,0,0,1,.907-2.684,12.1,12.1,0,0,1,.887-1.978,5.427,5.427,0,0,1,2.6-2.162,15.866,15.866,0,0,0,3.39-1.978c1.173-.928,2.782-2.52,2.8-4.146a3.027,3.027,0,0,0-.557-1.911" transform="translate(-7.068 4.85)" fill="#f38200"/>
        <path id="パス_171" data-name="パス 171" d="M137.848,19.791c2.247-6.1,9.228,1.1,3.271,3.678,6.746,1.111,2.016,10.711-1.448,4.349a4.029,4.029,0,0,1-3.93,4.13,4.765,4.765,0,0,1-3.074-.8,3.323,3.323,0,0,1-.921-3.463c.388-1.1,1.964-2.487,3.244-2.182-10.084-2.393-2.581-10.828,2.71-3.561-.562.016.026-1.84.149-2.151" transform="translate(-56.296 -2.805)" fill="#c08d4e"/>
        <path id="パス_172" data-name="パス 172" d="M121.779,40.129a.686.686,0,0,1-.116-.01.66.66,0,0,1-.534-.764,12.411,12.411,0,0,1,6.324-8.645.659.659,0,1,1,.613,1.167,11.064,11.064,0,0,0-5.638,7.708.659.659,0,0,1-.649.544" transform="translate(-52.383 -8.627)" fill="#c08d4e"/>
        <path id="パス_173" data-name="パス 173" d="M5.7,156.23l3.651,13.563,4.437-13.563h4.342l4.122,13.563,3.966-13.563h5.695l-6.7,20.99h-5.57l-3.808-12.147L11.8,177.22H6.262L0,156.23Z" transform="translate(170.501 -115.357)" fill="#5e5957"/>
        <path id="パス_174" data-name="パス 174" d="M62.8,173.695H55.186L53.77,177.22H48.011l8.055-20.99h5.948l7.9,20.99H64.091Zm-1.447-4.154-2.36-6.8-2.3,6.8Z" transform="translate(154.62 -115.358)" fill="#5e5957"/>
        <path id="パス_175" data-name="パス 175" d="M84.359,177.219V156.23H89.8l10.038,12.839V156.23h5.444v20.99H99.841L89.8,164.38v12.839Z" transform="translate(142.596 -115.358)" fill="#5e5957"/>
        <path id="パス_176" data-name="パス 176" d="M138.612,164.066h7.867V156.23h5.475v20.989h-5.475v-8.5h-7.867v8.5h-5.443V156.23h5.443Z" transform="translate(126.45 -115.357)" fill="#5e5957"/>
        <path id="パス_177" data-name="パス 177" d="M186.269,174.343a12.551,12.551,0,0,1-16.552,0,10.981,10.981,0,0,1,0-15.7,12.551,12.551,0,0,1,16.552,0,10.98,10.98,0,0,1,0,15.7m-12.524-11.864a5.75,5.75,0,0,0-1.668,4.122,5.333,5.333,0,0,0,1.668,3.9,5.953,5.953,0,0,0,4.248,1.668,5.7,5.7,0,0,0,5.916-5.664,5.661,5.661,0,0,0-1.7-4.028,6.278,6.278,0,0,0-4.216-1.668,6.044,6.044,0,0,0-4.248,1.668" transform="translate(115.453 -115.124)" fill="#5e5957"/>
        <path id="パス_178" data-name="パス 178" d="M211.638,156.23v12.43a4.246,4.246,0,0,0,1.069,3.242,3.867,3.867,0,0,0,5.1.094,4.6,4.6,0,0,0,1.227-3.808V156.23h5.445v12.052c0,2.2-.094,4.5-2.36,6.8a9.064,9.064,0,0,1-6.924,2.612c-3.3,0-5.664-1.132-6.954-2.518-1.825-1.982-2.045-4.657-2.045-6.891V156.23Z" transform="translate(102.294 -115.358)" fill="#5e5957"/>
        <path id="パス_179" data-name="パス 179" d="M241.015,170.693a7.353,7.353,0,0,0,4.815,2.139,2.762,2.762,0,0,0,2.109-.724,1.878,1.878,0,0,0,.535-1.321,1.639,1.639,0,0,0-.6-1.259,7.563,7.563,0,0,0-2.706-1.1l-1.417-.441a6.848,6.848,0,0,1-3.021-1.7,5.279,5.279,0,0,1-1.2-3.713,6.861,6.861,0,0,1,1.92-5.067,7.4,7.4,0,0,1,5.381-1.983,14.747,14.747,0,0,1,6.483,1.7l-2.172,4.248a5.536,5.536,0,0,0-3.587-1.416,2.615,2.615,0,0,0-1.794.629,1.556,1.556,0,0,0-.535,1.133,1.409,1.409,0,0,0,.283.944,3.45,3.45,0,0,0,1.825.944l1.669.5a8.017,8.017,0,0,1,3.807,2.077,4.955,4.955,0,0,1,1.353,3.745,7.108,7.108,0,0,1-1.983,5.287c-1.793,1.794-3.964,2.139-6.2,2.139a11.214,11.214,0,0,1-4.122-.692,14.679,14.679,0,0,1-3.177-1.668Z" transform="translate(91.545 -115.124)" fill="#5e5957"/>
        <path id="パス_180" data-name="パス 180" d="M278.873,160.857h-6.482v3.493h6.137v4.626h-6.137v3.618h6.482v4.626H266.947V156.23h11.926Z" transform="translate(82.196 -115.357)" fill="#5e5957"/>
      </g>
    </g>
  </g>
</svg>
