<svg id="コンポーネント_16_1" data-name="コンポーネント 16 – 1" xmlns="http://www.w3.org/2000/svg" xmlns:xlink="http://www.w3.org/1999/xlink" width="301" height="48" viewBox="0 0 301 48">
  <defs>
    <clipPath id="clip-path">
      <rect id="長方形_273" data-name="長方形 273" width="32" height="34.826" fill="#d97b0e"/>
    </clipPath>
  </defs>
  <text id="_082-000-0000" data-name="082-000-0000" transform="translate(44 36)" fill="#d97b0e" font-size="34" font-family="Poppins-SemiBold, Poppins" font-weight="600"><tspan x="0" y="0">082-000-0000</tspan></text>
  <g id="グループ_316" data-name="グループ 316" transform="translate(0 6.587)">
    <g id="グループ_315" data-name="グループ 315" clip-path="url(#clip-path)">
      <path id="パス_464" data-name="パス 464" d="M26.012,21.47a3.276,3.276,0,0,0-4.126.175l-1.81,1.666a1.505,1.505,0,0,1-1.034.4,1.823,1.823,0,0,1-1.094-.382,30.5,30.5,0,0,1-4.161-4.111l-.164-.2a30.473,30.473,0,0,1-3.3-4.819,1.864,1.864,0,0,1-.207-.843,1.524,1.524,0,0,1,.6-1.246l1.96-1.486a3.219,3.219,0,0,0,1.27-2.553A3.173,3.173,0,0,0,13.578,6.6,20.806,20.806,0,0,0,9.161.932,3.578,3.578,0,0,0,6.743,0,3.668,3.668,0,0,0,4.527.751l-2.4,1.835A5.58,5.58,0,0,0,.019,6.821C.007,7.057,0,7.3,0,7.535c0,5.792,3.533,11.548,5.052,13.754a1.024,1.024,0,0,0,1.687-1.162C3.8,15.862,2.049,11.155,2.049,7.535c0-.2.005-.407.016-.606A3.566,3.566,0,0,1,3.372,4.213l2.4-1.835a1.614,1.614,0,0,1,2.009.068,18.779,18.779,0,0,1,3.986,5.106,1.1,1.1,0,0,1,.129.521,1.161,1.161,0,0,1-.459.92L9.477,10.479a3.576,3.576,0,0,0-1.414,2.879A3.911,3.911,0,0,0,8.5,15.136a32.035,32.035,0,0,0,3.56,5.2l.154.184a32,32,0,0,0,4.5,4.433,3.879,3.879,0,0,0,2.335.8,3.565,3.565,0,0,0,2.421-.941l1.81-1.666a1.171,1.171,0,0,1,1.477-.068,18.776,18.776,0,0,1,4.317,4.828,1.52,1.52,0,0,1,.232.811,1.6,1.6,0,0,1-.52,1.178l-2.232,2.036a3.433,3.433,0,0,1-2.341.841,4.575,4.575,0,0,1-.563-.035c-4.606-.576-9.57-4.235-12.68-7.467A1.024,1.024,0,1,0,9.486,26.7c4.343,4.514,9.54,7.534,13.9,8.079a6.655,6.655,0,0,0,.818.051,5.41,5.41,0,0,0,3.722-1.376l2.233-2.037a3.653,3.653,0,0,0,1.188-2.691,3.572,3.572,0,0,0-.546-1.9,20.821,20.821,0,0,0-4.791-5.353" fill="#d97b0e"/>
      <path id="パス_465" data-name="パス 465" d="M116.27,44.326a1.024,1.024,0,1,0,0,2.049,5.811,5.811,0,0,1,5.8,5.8,1.024,1.024,0,0,0,2.049,0,7.862,7.862,0,0,0-7.853-7.853" transform="translate(-97.586 -37.534)" fill="#d97b0e"/>
      <path id="パス_466" data-name="パス 466" d="M116.27,8.676a1.024,1.024,0,1,0,0,2.049,11.28,11.28,0,0,1,11.267,11.267,1.024,1.024,0,1,0,2.049,0A13.331,13.331,0,0,0,116.27,8.676" transform="translate(-97.586 -7.347)" fill="#d97b0e"/>
    </g>
  </g>
</svg>
