<svg id="グループ_233" data-name="グループ 233" xmlns="http://www.w3.org/2000/svg" xmlns:xlink="http://www.w3.org/1999/xlink" width="130" height="85.961" viewBox="0 0 130 85.961">
  <defs>
    <clipPath id="clip-path">
      <rect id="長方形_194" data-name="長方形 194" width="130" height="85.961" fill="#d97b0e"/>
    </clipPath>
  </defs>
  <g id="グループ_232" data-name="グループ 232" clip-path="url(#clip-path)">
    <path id="パス_169" data-name="パス 169" d="M184.8,68.624a4.49,4.49,0,0,1-.662-.913,3.923,3.923,0,0,1-.185-1.2c-.213-2.259-2.053-4.057-4.071-5.1-4.14-2.131-9.051-1.848-13.7-1.63s-9.633.231-13.538-2.306c-3.213-2.088-6.25-5.889-6.205-9.835q.036-3.231.072-6.461a8.028,8.028,0,0,0-.03-1c-.011-.1-.039-.216-.133-.252a.283.283,0,0,0-.236.054c-1.551.928-2.107,2.583-2.994,4.045-.472.778-1.03.55-1.841.459-.388-.043-2.865-.294-3.048.1.21-.454-.087-.98-.176-1.428-.1-.5-.147-1.008-.273-1.505-.068-.268-.846-1.983-.606-2.166a14.522,14.522,0,0,0-3,3.515,15.508,15.508,0,0,1-2.236,3,7.625,7.625,0,0,0-2.023,2.518c-.562,1.212-.9,2.516-1.518,3.7a7.406,7.406,0,0,1-2.086,2.428,8.565,8.565,0,0,1-1.425.886,3.763,3.763,0,0,1-.685.318,4.811,4.811,0,0,1-1.036.019.469.469,0,0,0-.184.026.446.446,0,0,0-.115.084,3.605,3.605,0,0,0-.62.755,1.276,1.276,0,0,0-.15.317,1.548,1.548,0,0,0,.122.915,5.063,5.063,0,0,0,.555.915c.262.41.56.8.845,1.191a3.967,3.967,0,0,0,2.012,1.577c-.093.132-.186.265-.27.4a9.481,9.481,0,0,0-1.444,5.31,1.575,1.575,0,0,0,.312,1.036,1.651,1.651,0,0,0,2.3-.2,6.524,6.524,0,0,0,1.157-2.438,11.654,11.654,0,0,1,.664-2.482,5.517,5.517,0,0,1,.859-1.223c.216-.244.428-.594.746-.7a12.15,12.15,0,0,1,1.652-.286l1.622-.293c.654-.117,1.307-.231,1.96-.331a34.5,34.5,0,0,0-1.391,6.77c-.017.246-.034.492-.04.74-.035,1.441.109,2.98-.614,4.226-.984,1.7-3.159,2.194-5.089,2.532l-4.407.77c-1.558.272-4.057.278-4.826,1.9a1.249,1.249,0,0,0,.01,1.192,1.817,1.817,0,0,0,1.706.529c1.35-.084,2.416.4,3.835.206l1.355-.19a2.51,2.51,0,0,1,.928-2.694,4.76,4.76,0,0,1,2.215-.919l5.226-1.122a3.126,3.126,0,0,0,1.549-.607,3.442,3.442,0,0,0,.567-2.06l.019-.233c.236-2.843.439-5.3,2.478-7.717a.877.877,0,0,1,1.342,1.131c-1.678,1.991-1.843,3.979-2.071,6.731l-.018.217a4.807,4.807,0,0,1-1.074,3.171,4.638,4.638,0,0,1-2.423,1.084l-5.226,1.122a3.388,3.388,0,0,0-1.437.531c-.141.122-.372.284-.425.473a1.264,1.264,0,0,0,1.028,1.487,2.188,2.188,0,0,0,.562.124,7.256,7.256,0,0,0,.727-.062c.265-.009.535.016.8.018q.813.008,1.626-.023c1.084-.039,2.166-.122,3.245-.232,1.349-.137,2.693-.316,4.036-.5a49.45,49.45,0,0,1,5.129-.643c1.7-.057,3.375-.586,5.087-.429,2.165.2,4.237.692,6.433.732.518.01,1.035,0,1.553-.007a2.414,2.414,0,0,1-.028-2.115c.842-1.783,3.09-1.6,4.574-1.473.369.031.728.054.982.057l2.053-.019.935-.009a4.682,4.682,0,0,1-2.175-2.787c-.5-1.988.6-3.834,1.669-5.409l1.475-2.173a.877.877,0,0,1,1.452.986l-1.475,2.173c-.9,1.317-1.742,2.711-1.419,3.994a3.233,3.233,0,0,0,1.907,1.993,6.5,6.5,0,0,0,1.272.366,6.171,6.171,0,0,1,2.064.732.877.877,0,0,1,.026,1.467,2.79,2.79,0,0,1-1.61.385q-2.052.016-4.1.037l-2.054.019c-.336,0-.733-.029-1.143-.063-.728-.061-2.1-.324-2.693.264-.8.79.424,1.7,1.178,1.809,2.163.311,4.359-.216,6.544-.15,1.992.06,4.031.607,5.941.042,1.149-.339-.775-1.492.591-1.973.587-.207,1.181-.364,1.755-.516.617-.163,1.2-.318,1.761-.525a4.452,4.452,0,0,0,2.394-1.789,1.835,1.835,0,0,0-.263-2.226.877.877,0,0,1,1.067-1.393,3.565,3.565,0,0,1,.736,4.46,5.937,5.937,0,0,1-3.325,2.593,9.59,9.59,0,0,1-2.626.733,1.629,1.629,0,0,0,1.019.656,7.522,7.522,0,0,0,1.3.34c2.281.31,5.852-1.3,7.28-2.889a8.429,8.429,0,0,0,1.48-3.674c.355-1.315-.51-2.923-1.344-4" transform="translate(-64.496 -21.465)" fill="#d97b0e"/>
    <path id="パス_170" data-name="パス 170" d="M66.166,14.385A1.083,1.083,0,0,0,65.445,14c-.761-.088-1.459.442-2.23.43a12.122,12.122,0,0,1-2.684-.388,7.347,7.347,0,0,1-2.173-.829c-.545-.358-.568-.95-.77-1.534-.219-.635-.346-1.2-.511-1.7a8.642,8.642,0,0,0-.549-4.926C55.882,3.324,54.165,1.779,53.654,0c-.79.986-1.454,5.291-1.349,7.545a9.167,9.167,0,0,0-1.755.019,7.07,7.07,0,0,0-1.543.353A25.078,25.078,0,0,0,46.834.809C45.518,3.4,44.161,6.185,44.328,9.154c0,.028.005.057.008.085-.91,1.951-.881,4.542-1.2,6.523a7.815,7.815,0,0,1-2.419,4.832c-1.368,1.249-1.986,3.2-3.216,4.623a24.8,24.8,0,0,0-2.3,2.5c-.813,1.23-1.791,2.332-2.69,3.5A37.972,37.972,0,0,0,28.757,37.3,36.039,36.039,0,0,0,25,50.809c0,.058,0,.115-.005.172a16.252,16.252,0,0,0-3.438,1.33,6.722,6.722,0,0,0-3.18,3.458,4.1,4.1,0,0,0,.977,4.411,5.961,5.961,0,0,0,2.6,1.118,27,27,0,0,0,6.659.693,5.238,5.238,0,0,0,2.949-.711,6.956,6.956,0,0,1-4.84-1.545,4.916,4.916,0,0,1-1.667-4.664,3.728,3.728,0,0,1,.368-.957,9.857,9.857,0,0,0,4.928,5.346,11.485,11.485,0,0,0,5.606,1.3,12.357,12.357,0,0,1,5.181-1.163c.6-.026,1.2-.005,1.784.017a8.456,8.456,0,0,0,3.5-.339,1.7,1.7,0,0,0,.673-.434.491.491,0,0,0,.134-.374c-.026-.106-.163-.289-.672-.559a4.057,4.057,0,0,0-1.163-.446,5.417,5.417,0,0,0-1.03-.028l-2.115.072a.889.889,0,0,1-.818-.491.876.876,0,0,1,.114-.947,37.8,37.8,0,0,0,2.31-3.218l.079-.119a10.659,10.659,0,0,0,1.106-2.734c.113-.371.225-.738.346-1.09a12.987,12.987,0,0,0,.98-4.517,3.818,3.818,0,0,0-1.837-3.343,4.52,4.52,0,0,0-2.462-.256,12.105,12.105,0,0,0-6.339,2.689.877.877,0,1,1-1.12-1.349,13.883,13.883,0,0,1,7.267-3.084,6.144,6.144,0,0,1,3.41.417,5.51,5.51,0,0,1,2.835,4.867,10.222,10.222,0,0,1-.378,2.92l.075-.066a50.92,50.92,0,0,1,.881,7.107c.027.5.133,1.007.134,1.506l0,1.21a2.9,2.9,0,0,0,.22,1.351,2.008,2.008,0,0,0,.314.428,2.9,2.9,0,0,0,1.281.851,5.17,5.17,0,0,0,1.664.1,2.176,2.176,0,0,0,1.579-.567,1.6,1.6,0,0,0,.134-1.548c-.185-.51-.507-.958-.725-1.454a8.853,8.853,0,0,1-.525-2.835c-.208-3.065-.642-6.075-.947-9.132.382-.226.771-.442,1.172-.638a7.847,7.847,0,0,0,.881-.507,18.063,18.063,0,0,0,.219,4.34,37.211,37.211,0,0,1,.772,6.943,7.928,7.928,0,0,0,.221,3.327,2.883,2.883,0,0,0,4.029,1.208c.627-.406,1.068-1.327.571-1.885a2.385,2.385,0,0,0-.573-.4c-1.892-1.155-1.3-3.4-1.265-5.228.059-3.369.076-6.74.314-10.1.119-1.679.291-3.354.554-5.018a31.965,31.965,0,0,0-.209-5.689q-.193-1.092-.386-2.182a4.044,4.044,0,0,1-.137-1.872,21.858,21.858,0,0,1,.74-2.188,9.863,9.863,0,0,1,.723-1.612,4.424,4.424,0,0,1,2.117-1.762,12.933,12.933,0,0,0,2.763-1.612c.956-.756,2.267-2.054,2.283-3.38a2.467,2.467,0,0,0-.454-1.558" transform="translate(-9.849 -0.001)" fill="#d97b0e"/>
    <path id="パス_171" data-name="パス 171" d="M136.4,19.349c1.832-4.974,7.522.9,2.666,3,5.5.905,1.643,8.731-1.181,3.545a3.284,3.284,0,0,1-3.2,3.366,3.884,3.884,0,0,1-2.506-.652,2.708,2.708,0,0,1-.751-2.823c.316-.894,1.6-2.027,2.645-1.779-8.22-1.951-2.1-8.827,2.209-2.9-.458.013.021-1.5.121-1.753" transform="translate(-70.66 -9.457)" fill="#d97b0e"/>
    <path id="パス_172" data-name="パス 172" d="M121.657,38.374a.559.559,0,0,1-.095-.008.538.538,0,0,1-.436-.623,10.116,10.116,0,0,1,5.155-7.047.537.537,0,1,1,.5.951,9.019,9.019,0,0,0-4.6,6.283.538.538,0,0,1-.529.444" transform="translate(-65.827 -16.649)" fill="#d97b0e"/>
    <path id="パス_173" data-name="パス 173" d="M3.885,156.23l2.49,9.252L9.4,156.23h2.962l2.812,9.252,2.705-9.252h3.885l-4.572,14.318H13.4l-2.6-8.286L8.05,170.549H4.272L0,156.23Z" transform="translate(0 -84.909)" fill="#d97b0e"/>
    <path id="パス_174" data-name="パス 174" d="M58.1,168.144H52.905l-.966,2.4H48.011l5.5-14.319h4.057l5.388,14.319H58.98Zm-.987-2.834-1.61-4.637-1.567,4.637Z" transform="translate(-26.093 -84.909)" fill="#d97b0e"/>
    <path id="パス_175" data-name="パス 175" d="M84.359,170.548V156.23h3.714l6.848,8.759V156.23h3.714v14.318H94.92l-6.848-8.759v8.759Z" transform="translate(-45.848 -84.909)" fill="#d97b0e"/>
    <path id="パス_176" data-name="パス 176" d="M136.882,161.576h5.366V156.23h3.735v14.318h-3.735v-5.8h-5.366v5.8h-3.713V156.23h3.713Z" transform="translate(-72.376 -84.909)" fill="#d97b0e"/>
    <path id="パス_177" data-name="パス 177" d="M179.958,168.362a8.562,8.562,0,0,1-11.291,0,7.491,7.491,0,0,1,0-10.712,8.562,8.562,0,0,1,11.291,0,7.49,7.49,0,0,1,0,10.712m-8.544-8.093a3.923,3.923,0,0,0-1.138,2.812,3.638,3.638,0,0,0,1.138,2.662,4.061,4.061,0,0,0,2.9,1.138,3.889,3.889,0,0,0,4.036-3.864,3.862,3.862,0,0,0-1.16-2.748,4.283,4.283,0,0,0-2.876-1.138,4.123,4.123,0,0,0-2.9,1.138" transform="translate(-90.443 -84.526)" fill="#d97b0e"/>
    <path id="パス_178" data-name="パス 178" d="M209.907,156.23v8.479a2.9,2.9,0,0,0,.73,2.211,2.638,2.638,0,0,0,3.478.064,3.135,3.135,0,0,0,.837-2.6V156.23h3.714v8.222a5.812,5.812,0,0,1-1.61,4.637,6.183,6.183,0,0,1-4.723,1.782,6.392,6.392,0,0,1-4.744-1.717,6.68,6.68,0,0,1-1.4-4.7V156.23Z" transform="translate(-112.063 -84.909)" fill="#d97b0e"/>
    <path id="パス_179" data-name="パス 179" d="M240.275,165.872a5.016,5.016,0,0,0,3.285,1.459,1.884,1.884,0,0,0,1.438-.494,1.281,1.281,0,0,0,.365-.9,1.118,1.118,0,0,0-.408-.859,5.16,5.16,0,0,0-1.846-.751l-.966-.3a4.671,4.671,0,0,1-2.061-1.159,3.6,3.6,0,0,1-.816-2.533,4.681,4.681,0,0,1,1.31-3.456,5.048,5.048,0,0,1,3.671-1.353,10.06,10.06,0,0,1,4.422,1.16l-1.481,2.9a3.777,3.777,0,0,0-2.447-.966,1.784,1.784,0,0,0-1.224.429,1.061,1.061,0,0,0-.365.773.961.961,0,0,0,.193.644,2.353,2.353,0,0,0,1.245.644l1.139.343a5.469,5.469,0,0,1,2.6,1.417,3.38,3.38,0,0,1,.923,2.555,4.849,4.849,0,0,1-1.353,3.606,5.548,5.548,0,0,1-4.229,1.459,7.649,7.649,0,0,1-2.812-.472,10.011,10.011,0,0,1-2.167-1.138Z" transform="translate(-129.723 -84.526)" fill="#d97b0e"/>
    <path id="パス_180" data-name="パス 180" d="M275.083,159.386h-4.422v2.383h4.186v3.156h-4.186v2.468h4.422v3.156h-8.136V156.23h8.136Z" transform="translate(-145.082 -84.909)" fill="#d97b0e"/>
  </g>
</svg>
