<svg xmlns="http://www.w3.org/2000/svg" width="70" height="46.287" viewBox="0 0 70 46.287">
  <g id="グループ_244" data-name="グループ 244" transform="translate(0)">
    <g id="グループ_225" data-name="グループ 225" transform="translate(0)">
      <path id="パス_151" data-name="パス 151" d="M154.405,55.236a2.426,2.426,0,0,1-.358-.494,2.12,2.12,0,0,1-.1-.646,3.747,3.747,0,0,0-2.2-2.754c-2.237-1.152-4.891-1-7.4-.881s-5.206.125-7.316-1.246c-1.736-1.128-3.377-3.182-3.353-5.315q.02-1.746.039-3.491a4.355,4.355,0,0,0-.016-.541c-.006-.054-.021-.117-.072-.136a.153.153,0,0,0-.127.029,5.448,5.448,0,0,0-1.618,2.186c-.255.42-.557.3-.995.248-.21-.023-1.548-.159-1.647.056.114-.245-.047-.529-.1-.772-.054-.27-.079-.544-.148-.813-.037-.145-.457-1.072-.327-1.17a7.846,7.846,0,0,0-1.622,1.9,8.382,8.382,0,0,1-1.208,1.623,4.121,4.121,0,0,0-1.093,1.361c-.3.655-.488,1.36-.82,2a4,4,0,0,1-1.127,1.312,4.629,4.629,0,0,1-.77.479,2.034,2.034,0,0,1-.37.172,2.6,2.6,0,0,1-.56.01.253.253,0,0,0-.1.014.241.241,0,0,0-.062.045,1.948,1.948,0,0,0-.335.408.688.688,0,0,0-.081.171.837.837,0,0,0,.066.494,2.736,2.736,0,0,0,.3.495c.142.222.3.43.457.644a2.144,2.144,0,0,0,1.087.852c-.05.072-.1.143-.146.216a5.123,5.123,0,0,0-.781,2.869.851.851,0,0,0,.168.56.892.892,0,0,0,1.244-.107,3.526,3.526,0,0,0,.625-1.318,6.3,6.3,0,0,1,.359-1.341,2.984,2.984,0,0,1,.464-.661c.117-.132.231-.321.4-.378a6.564,6.564,0,0,1,.893-.155l.877-.158c.353-.063.706-.125,1.059-.179a18.641,18.641,0,0,0-.751,3.659c-.009.133-.018.266-.021.4a4.7,4.7,0,0,1-.332,2.284,3.718,3.718,0,0,1-2.75,1.368l-2.382.416c-.842.147-2.192.15-2.608,1.026a.675.675,0,0,0,.005.644c.183.284.584.307.922.286.729-.045,1.306.219,2.072.111l.732-.1a1.356,1.356,0,0,1,.5-1.456,2.572,2.572,0,0,1,1.2-.5L127,58.356a1.689,1.689,0,0,0,.837-.328,1.86,1.86,0,0,0,.306-1.113l.01-.126a6.6,6.6,0,0,1,1.339-4.17.474.474,0,1,1,.725.611,5.707,5.707,0,0,0-1.119,3.638l-.01.117a2.6,2.6,0,0,1-.58,1.714,2.506,2.506,0,0,1-1.309.586l-2.824.606a1.83,1.83,0,0,0-.777.287c-.076.066-.2.153-.229.256a.683.683,0,0,0,.555.8,1.181,1.181,0,0,0,.3.067,3.921,3.921,0,0,0,.393-.034c.143,0,.289.009.432.01q.439,0,.878-.012c.586-.021,1.171-.066,1.754-.125.729-.074,1.456-.171,2.181-.273a26.722,26.722,0,0,1,2.772-.347,21.9,21.9,0,0,1,2.749-.232c1.17.107,2.29.374,3.476.4.28.005.559,0,.839,0a1.3,1.3,0,0,1-.015-1.143c.455-.964,1.67-.863,2.472-.8.2.017.393.029.531.031l1.11-.01.505,0a2.53,2.53,0,0,1-1.175-1.506,3.719,3.719,0,0,1,.9-2.923l.8-1.174a.474.474,0,1,1,.784.533l-.8,1.174a2.946,2.946,0,0,0-.767,2.159,1.747,1.747,0,0,0,1.03,1.077,3.514,3.514,0,0,0,.687.2,3.335,3.335,0,0,1,1.115.4.474.474,0,0,1,.014.793,1.507,1.507,0,0,1-.87.208l-2.217.02-1.11.01c-.181,0-.4-.016-.618-.034-.393-.033-1.133-.175-1.455.143-.433.427.229.919.637.978a31.574,31.574,0,0,0,3.536-.081,10.239,10.239,0,0,0,3.211.023c.621-.183-.419-.806.319-1.066.317-.112.638-.2.949-.279.333-.088.648-.172.952-.284a2.406,2.406,0,0,0,1.294-.967.992.992,0,0,0-.142-1.2.474.474,0,0,1,.577-.753,1.926,1.926,0,0,1,.4,2.41,3.208,3.208,0,0,1-1.8,1.4,5.182,5.182,0,0,1-1.419.4.88.88,0,0,0,.551.355,4.063,4.063,0,0,0,.7.184,5.533,5.533,0,0,0,3.934-1.561,4.555,4.555,0,0,0,.8-1.985,2.787,2.787,0,0,0-.726-2.162" transform="translate(-89.646 -29.817)" fill="#fff"/>
      <path id="パス_152" data-name="パス 152" d="M44.084,7.773a.584.584,0,0,0-.39-.21c-.411-.048-.789.239-1.205.232a6.551,6.551,0,0,1-1.45-.21,3.97,3.97,0,0,1-1.174-.448c-.295-.193-.307-.513-.416-.829-.118-.343-.187-.65-.276-.918a4.67,4.67,0,0,0-.3-2.662C38.527,1.8,37.6.961,37.323,0a9.589,9.589,0,0,0-.729,4.077,4.954,4.954,0,0,0-.949.01,3.82,3.82,0,0,0-.834.191A13.547,13.547,0,0,0,33.637.437a9.1,9.1,0,0,0-1.354,4.51c0,.015,0,.031,0,.046a13.444,13.444,0,0,0-.646,3.525,4.223,4.223,0,0,1-1.307,2.611,26.82,26.82,0,0,0-1.738,2.5,13.377,13.377,0,0,0-1.243,1.351c-.439.664-.968,1.26-1.454,1.89a20.528,20.528,0,0,0-2.031,3.286,19.477,19.477,0,0,0-2.03,7.3c0,.031,0,.062,0,.093a8.781,8.781,0,0,0-1.858.719,3.634,3.634,0,0,0-1.718,1.869,2.214,2.214,0,0,0,.528,2.384,3.221,3.221,0,0,0,1.4.6,14.617,14.617,0,0,0,3.6.375,2.831,2.831,0,0,0,1.593-.384,3.761,3.761,0,0,1-2.615-.835,2.657,2.657,0,0,1-.9-2.521,2.022,2.022,0,0,1,.2-.517,5.327,5.327,0,0,0,2.663,2.889,6.206,6.206,0,0,0,3.029.7,6.677,6.677,0,0,1,2.8-.629c.322-.015.649,0,.964.009a4.57,4.57,0,0,0,1.894-.183.921.921,0,0,0,.364-.235.264.264,0,0,0,.072-.2c-.014-.057-.088-.156-.363-.3a2.192,2.192,0,0,0-.628-.241,2.927,2.927,0,0,0-.557-.015l-1.143.039a.481.481,0,0,1-.442-.265.474.474,0,0,1,.061-.512,20.465,20.465,0,0,0,1.248-1.739l.043-.064a5.764,5.764,0,0,0,.6-1.478c.061-.2.121-.4.187-.589a7.019,7.019,0,0,0,.53-2.441,2.064,2.064,0,0,0-.993-1.807,2.443,2.443,0,0,0-1.33-.138,6.54,6.54,0,0,0-3.425,1.453.474.474,0,1,1-.605-.729A7.5,7.5,0,0,1,30.958,21.1a3.321,3.321,0,0,1,1.843.225,2.979,2.979,0,0,1,1.532,2.631,5.524,5.524,0,0,1-.2,1.578l.04-.036a27.513,27.513,0,0,1,.476,3.841c.015.271.072.544.073.813V30.8a1.568,1.568,0,0,0,.119.73,1.092,1.092,0,0,0,.17.231,1.565,1.565,0,0,0,.692.46,2.787,2.787,0,0,0,.9.054,1.176,1.176,0,0,0,.853-.306.867.867,0,0,0,.073-.837c-.1-.276-.274-.518-.392-.786a4.784,4.784,0,0,1-.284-1.532c-.112-1.656-.347-3.283-.512-4.935.206-.122.416-.239.633-.345a4.2,4.2,0,0,0,.476-.274,9.761,9.761,0,0,0,.118,2.345,20.107,20.107,0,0,1,.417,3.752,4.284,4.284,0,0,0,.12,1.8,1.558,1.558,0,0,0,2.177.653c.339-.22.577-.717.309-1.019a1.289,1.289,0,0,0-.31-.215c-1.023-.624-.7-1.838-.684-2.825.032-1.82.041-3.643.169-5.46.064-.907.157-1.813.3-2.711a17.275,17.275,0,0,0-.113-3.074l-.208-1.179a2.184,2.184,0,0,1-.074-1.011,11.793,11.793,0,0,1,.4-1.182,5.319,5.319,0,0,1,.391-.871,2.389,2.389,0,0,1,1.144-.952,7,7,0,0,0,1.493-.871,2.839,2.839,0,0,0,1.234-1.826,1.333,1.333,0,0,0-.245-.842" transform="translate(-13.651)" fill="#fff"/>
      <path id="パス_153" data-name="パス 153" d="M133.464,18.454c.99-2.688,4.065.485,1.441,1.62,2.971.489.888,4.718-.638,1.916a1.775,1.775,0,0,1-1.731,1.819,2.1,2.1,0,0,1-1.354-.352,1.464,1.464,0,0,1-.406-1.525c.171-.483.865-1.1,1.429-.961-4.442-1.054-1.137-4.77,1.194-1.569-.247.007.011-.811.066-.948" transform="translate(-98.065 -13.108)" fill="#fff"/>
      <path id="パス_154" data-name="パス 154" d="M121.41,34.816a.279.279,0,0,1-.051,0,.291.291,0,0,1-.235-.336,5.467,5.467,0,0,1,2.786-3.808.29.29,0,1,1,.27.514,4.874,4.874,0,0,0-2.483,3.4.29.29,0,0,1-.286.24" transform="translate(-91.351 -23.106)" fill="#fff"/>
      <path id="パス_155" data-name="パス 155" d="M2.1,156.23l1.346,5,1.636-5h1.6l1.52,5,1.462-5h2.1l-2.471,7.738H7.239l-1.4-4.478L4.35,163.968H2.308L0,156.23Z" transform="translate(0 -117.855)" fill="#fff"/>
      <path id="パス_156" data-name="パス 156" d="M53.463,162.668H50.656l-.522,1.3H48.011l2.969-7.738h2.193l2.912,7.738H53.939Zm-.534-1.531-.87-2.506-.847,2.506Z" transform="translate(-36.215 -117.855)" fill="#fff"/>
      <path id="パス_157" data-name="パス 157" d="M84.359,163.967V156.23h2.007l3.7,4.733V156.23h2.007v7.738H90.066l-3.7-4.733v4.733Z" transform="translate(-63.632 -117.855)" fill="#fff"/>
      <path id="パス_158" data-name="パス 158" d="M135.175,159.119h2.9V156.23h2.018v7.737h-2.018v-3.132h-2.9v3.132h-2.007V156.23h2.007Z" transform="translate(-100.447 -117.855)" fill="#fff"/>
      <path id="パス_159" data-name="パス 159" d="M173.733,162.462a4.627,4.627,0,0,1-6.1,0,4.048,4.048,0,0,1,0-5.789,4.627,4.627,0,0,1,6.1,0,4.048,4.048,0,0,1,0,5.789m-4.617-4.373a2.12,2.12,0,0,0-.615,1.52,1.966,1.966,0,0,0,.615,1.438,2.194,2.194,0,0,0,1.566.615,2.1,2.1,0,0,0,2.181-2.088,2.087,2.087,0,0,0-.627-1.485,2.315,2.315,0,0,0-1.554-.615,2.228,2.228,0,0,0-1.566.615" transform="translate(-125.527 -117.324)" fill="#fff"/>
      <path id="パス_160" data-name="パス 160" d="M208.2,156.23v4.582a1.565,1.565,0,0,0,.394,1.2,1.425,1.425,0,0,0,1.879.035,1.694,1.694,0,0,0,.452-1.4V156.23h2.007v4.443a3.141,3.141,0,0,1-.87,2.506,3.341,3.341,0,0,1-2.552.963,3.454,3.454,0,0,1-2.564-.928,3.61,3.61,0,0,1-.754-2.54V156.23Z" transform="translate(-155.527 -117.855)" fill="#fff"/>
      <path id="パス_161" data-name="パス 161" d="M239.545,161.116a2.71,2.71,0,0,0,1.775.789,1.018,1.018,0,0,0,.777-.267.692.692,0,0,0,.2-.487.6.6,0,0,0-.221-.464,2.788,2.788,0,0,0-1-.406l-.522-.163a2.524,2.524,0,0,1-1.114-.626,1.946,1.946,0,0,1-.441-1.369,2.529,2.529,0,0,1,.708-1.868,2.728,2.728,0,0,1,1.984-.731,5.437,5.437,0,0,1,2.39.627l-.8,1.566a2.041,2.041,0,0,0-1.322-.522.964.964,0,0,0-.661.232.574.574,0,0,0-.2.418.519.519,0,0,0,.1.348,1.271,1.271,0,0,0,.673.348l.615.185a2.956,2.956,0,0,1,1.4.766,1.827,1.827,0,0,1,.5,1.381,2.62,2.62,0,0,1-.731,1.949,3,3,0,0,1-2.285.789,4.134,4.134,0,0,1-1.52-.255,5.415,5.415,0,0,1-1.171-.615Z" transform="translate(-180.055 -117.323)" fill="#fff"/>
      <path id="パス_162" data-name="パス 162" d="M271.343,157.935h-2.389v1.288h2.262v1.705h-2.262v1.334h2.389v1.705h-4.4V156.23h4.4Z" transform="translate(-201.344 -117.855)" fill="#fff"/>
    </g>
  </g>
</svg>
