<svg xmlns="http://www.w3.org/2000/svg" xmlns:xlink="http://www.w3.org/1999/xlink" width="244.713" height="53" viewBox="0 0 244.713 53">
  <defs>
    <clipPath id="clip-path">
      <rect id="長方形_273" data-name="長方形 273" width="28" height="30.473" fill="#1c1c1c"/>
    </clipPath>
  </defs>
  <g id="グループ_870" data-name="グループ 870" transform="translate(-56 -678)">
    <text id="お電話でのお問い合わせ" transform="translate(106 689)" fill="#1c1c1c" font-size="12" font-family="HiraginoSans-W3, Hiragino Sans" letter-spacing="0.1em"><tspan x="0" y="0">お電話でのお問い合わせ</tspan></text>
    <g id="グループ_801" data-name="グループ 801" transform="translate(41.287 684)">
      <text id="_082-000-0000" data-name="082-000-0000" transform="translate(47.425 37)" fill="#1c1c1c" font-size="28" font-family="Poppins-SemiBold, Poppins" font-weight="600"><tspan x="0" y="0">082-000-0000</tspan></text>
      <g id="グループ_316" data-name="グループ 316" transform="translate(14.713 12.264)">
        <g id="グループ_315" data-name="グループ 315" clip-path="url(#clip-path)">
          <path id="パス_464" data-name="パス 464" d="M22.76,18.786a2.867,2.867,0,0,0-3.61.153L17.566,20.4a1.317,1.317,0,0,1-.905.35,1.6,1.6,0,0,1-.957-.334,26.684,26.684,0,0,1-3.641-3.6l-.143-.172a26.665,26.665,0,0,1-2.891-4.217,1.631,1.631,0,0,1-.181-.738A1.333,1.333,0,0,1,9.375,10.6L11.09,9.3A2.817,2.817,0,0,0,12.2,7.064a2.776,2.776,0,0,0-.321-1.293A18.2,18.2,0,0,0,8.016.816,3.131,3.131,0,0,0,5.9,0,3.209,3.209,0,0,0,3.961.657l-2.1,1.605A4.883,4.883,0,0,0,.016,5.968C.006,6.175,0,6.384,0,6.593c0,5.068,3.092,10.1,4.42,12.035A.9.9,0,0,0,5.9,17.612c-2.569-3.732-4.1-7.851-4.1-11.018,0-.179,0-.356.014-.53A3.121,3.121,0,0,1,2.951,3.686l2.1-1.605a1.412,1.412,0,0,1,1.758.06A16.432,16.432,0,0,1,10.3,6.608a.965.965,0,0,1,.113.456,1.016,1.016,0,0,1-.4.805l-1.716,1.3a3.129,3.129,0,0,0-1.238,2.519,3.422,3.422,0,0,0,.379,1.556A28.03,28.03,0,0,0,10.549,17.8l.135.161a28,28,0,0,0,3.935,3.879,3.394,3.394,0,0,0,2.043.7,3.119,3.119,0,0,0,2.119-.823l1.584-1.458a1.024,1.024,0,0,1,1.292-.06,16.429,16.429,0,0,1,3.778,4.225,1.33,1.33,0,0,1,.2.71,1.4,1.4,0,0,1-.455,1.031l-1.953,1.781a3,3,0,0,1-2.049.736,4,4,0,0,1-.493-.031c-4.03-.5-8.374-3.705-11.095-6.533A.9.9,0,1,0,8.3,23.359c3.8,3.949,8.348,6.592,12.164,7.069a5.823,5.823,0,0,0,.715.045,4.734,4.734,0,0,0,3.257-1.2l1.954-1.782a3.2,3.2,0,0,0,1.039-2.354,3.126,3.126,0,0,0-.477-1.663,18.219,18.219,0,0,0-4.192-4.683" transform="translate(0 0)" fill="#1c1c1c"/>
          <path id="パス_465" data-name="パス 465" d="M116.142,44.326a.9.9,0,1,0,0,1.793,5.085,5.085,0,0,1,5.079,5.079.9.9,0,0,0,1.793,0,6.879,6.879,0,0,0-6.871-6.871" transform="translate(-99.794 -38.383)" fill="#1c1c1c"/>
          <path id="パス_466" data-name="パス 466" d="M116.142,8.676a.9.9,0,1,0,0,1.793A9.87,9.87,0,0,1,126,20.327a.9.9,0,1,0,1.793,0A11.665,11.665,0,0,0,116.142,8.676" transform="translate(-99.794 -7.513)" fill="#1c1c1c"/>
        </g>
      </g>
    </g>
  </g>
</svg>
