<svg xmlns="http://www.w3.org/2000/svg" xmlns:xlink="http://www.w3.org/1999/xlink" width="31" height="32" viewBox="0 0 31 32">
  <defs>
    <clipPath id="clip-path">
      <rect id="長方形_302" data-name="長方形 302" width="31" height="32" transform="translate(66.969 2)" fill="#fff" stroke="#707070" stroke-width="1"/>
    </clipPath>
    <clipPath id="clip-path-2">
      <rect id="長方形_301" data-name="長方形 301" width="25.495" height="23.655" fill="#e0d6c2"/>
    </clipPath>
  </defs>
  <g id="マスクグループ_22" data-name="マスクグループ 22" transform="translate(-66.969 -2)" clip-path="url(#clip-path)">
    <g id="グループ_332" data-name="グループ 332" transform="translate(76.892 1.989) rotate(31)">
      <g id="グループ_331" data-name="グループ 331" transform="translate(0 0)" clip-path="url(#clip-path-2)">
        <path id="パス_474" data-name="パス 474" d="M13.928,1.464A8.989,8.989,0,0,0,11.685.251,3.349,3.349,0,0,0,8.016.983C6.063,2.851,4.094,4.7,2.186,6.613A8.894,8.894,0,0,0,.606,8.747a4.591,4.591,0,0,0,2.877,6.772,23.634,23.634,0,0,0,3.079.487c2.542-.293,5.033-.542,7.51-.89a11.431,11.431,0,0,0,2.344-.749,3.438,3.438,0,0,0,2.224-2.692,7.143,7.143,0,0,0-.3-4.367,13.594,13.594,0,0,0-4.414-5.844" transform="translate(3.092 7.649)" fill="#e0d6c2"/>
        <path id="パス_475" data-name="パス 475" d="M3,7.928A2.4,2.4,0,0,0,5.189,6.481,31.141,31.141,0,0,0,6.2,3.327C6.05,1.236,5.192.276,3.115.016A2.99,2.99,0,0,0,.108,2.609,5.91,5.91,0,0,0,.94,6.764,1.957,1.957,0,0,0,3,7.928" transform="translate(4.891 0.664)" fill="#e0d6c2"/>
        <path id="パス_476" data-name="パス 476" d="M3.543,7.144c1.406-.2,2.311-1.406,2.5-3.167A14.362,14.362,0,0,0,5.01,1.261a2.592,2.592,0,0,0-4.627.363A4.311,4.311,0,0,0,.229,4.8,3.02,3.02,0,0,0,3.543,7.144" transform="translate(14.408 0)" fill="#e0d6c2"/>
        <path id="パス_477" data-name="パス 477" d="M4.966,2.826A10.284,10.284,0,0,0,4.717,1.54C4.3.142,3.434-.208,1.992.107.138.512-.4,2.139.292,3.987a2.562,2.562,0,0,0,2.8,1.85c1.183-.208,1.9-1.248,1.879-3.01" transform="translate(0 8.129)" fill="#e0d6c2"/>
        <path id="パス_478" data-name="パス 478" d="M3.764.178A1.826,1.826,0,0,0,1.609.651,5,5,0,0,0,0,3.914,1.716,1.716,0,0,0,2.412,5.565a4.037,4.037,0,0,0,2.424-3.44A1.918,1.918,0,0,0,3.764.178" transform="translate(20.658 6.738)" fill="#e0d6c2"/>
      </g>
    </g>
  </g>
</svg>
